<svg xmlns="http://www.w3.org/2000/svg" viewBox="0 0 750 500"><g id="freepik--background-complete--inject-8"><polygon points="197.81 68.13 276.91 68.13 276.91 171.08 198.34 170.68 197.81 68.13" style="fill:#e0e0e0"></polygon><rect x="193.26" y="68.13" width="78.63" height="102.16" transform="translate(465.15 238.42) rotate(180)" style="fill:#f5f5f5"></rect><path d="M272.28,67.74V170.68H192.87V67.74ZM271.5,169.9V68.52H193.65V169.9Z" style="fill:#e0e0e0"></path><rect x="201.34" y="79.2" width="60.2" height="80.03" style="fill:#fff"></rect><path d="M201.34,79.2s0,.13,0,.39,0,.63,0,1.12c0,1,0,2.46,0,4.36,0,3.81,0,9.37.05,16.41,0,14.08.06,34.06.09,57.74l-.18-.18,60.2,0h0l-.2.2c0-29.8,0-57.42,0-80l.16.16-43.71-.08-12.17,0h-3.21l-1.11,0,1.07,0,3.18,0,12.13,0L261.54,79h.17v.17c0,22.6,0,50.22,0,80v.21h-.2l-60.2,0h-.18v-.19c0-23.73.07-43.75.09-57.86,0-7,0-12.56.05-16.37,0-1.88,0-3.33,0-4.32,0-.48,0-.85,0-1.11S201.34,79.2,201.34,79.2Z" style="fill:#e0e0e0"></path><path d="M193.08,170.29a9.67,9.67,0,0,1,1.06-1.73c.7-1,1.68-2.45,2.82-4s2.21-2.89,3-3.85a10.23,10.23,0,0,1,1.37-1.5,10.51,10.51,0,0,1-1.15,1.68l-2.9,3.91-2.92,3.92A11.33,11.33,0,0,1,193.08,170.29Z" style="fill:#e0e0e0"></path><path d="M193.26,68.13a59.27,59.27,0,0,1,4.2,5.42,55.62,55.62,0,0,1,3.88,5.65,59.27,59.27,0,0,1-4.2-5.42A55.62,55.62,0,0,1,193.26,68.13Z" style="fill:#e0e0e0"></path><line x1="271.89" y1="68.13" x2="261.54" y2="79.6" style="fill:#fff"></line><path d="M261.54,79.6a76.7,76.7,0,0,1,5-5.87,73.91,73.91,0,0,1,5.32-5.6,68.71,68.71,0,0,1-5,5.87A70.58,70.58,0,0,1,261.54,79.6Z" style="fill:#e0e0e0"></path><path d="M271.89,170.29A70.42,70.42,0,0,1,266.8,165a65.66,65.66,0,0,1-4.79-5.61,66.06,66.06,0,0,1,5.09,5.34A63.9,63.9,0,0,1,271.89,170.29Z" style="fill:#e0e0e0"></path><path d="M228,94.13c1.24.64,2.43.21,3.68-.06,3.19-.68,5.57.05,8.41,2.35,2.11-.06,4.11-.58,5.82,1,.17.15.47.14.71.22.4.13.79.28,1.19.42l-.06.19-1.18-.33-.13.22c.17.12.32.33.51.36,3,.48,4.2,2.49,3,5.3.41.52,1.13,1,.74,1.93-.1-.71-.28-1.3-1.19-1.47a4.26,4.26,0,0,1-2.16,7.09l.93.3,0,.15-1.47-.28a40.38,40.38,0,0,0-.38,4.4c.11,5-2,8.17-7.07,10a2.56,2.56,0,0,0-2,2.75,8.67,8.67,0,0,0,1.81,5.19c.83,1.2,1.82,2.3,2.81,3.54a29.57,29.57,0,0,0-14.84,8.44,40.43,40.43,0,0,0,1.54-5.14,17,17,0,0,0-1.51-10,3.91,3.91,0,0,0-4.45-2.36c-1,.12-2,.29-3,.35-1.6.1-2.73-.55-3-1.74a4,4,0,0,1,.08-1.38,2,2,0,0,0-.48-2c-.59-.57-.23-1.21.25-1.85-1.07-.32-1-1-.71-1.87a1.08,1.08,0,0,0-.59-1.49c-1.31-.72-1.38-1.62-.36-2.71s1.74-2,2.59-3l-1.51-1.14.13-.18a1.53,1.53,0,0,0,.46.23,1.66,1.66,0,0,0,.8,0c.08,0,.08-.41.05-.62a14.91,14.91,0,0,1,1.08-8.86.94.94,0,0,0,.08-.65c-1.34-3.4.06-4.6,2-6.17a8.4,8.4,0,0,1,7.11-1.69H226l0,.12,2,.48L225.94,94a5.69,5.69,0,0,0-3.88,1c2.33-.92,4.56-.38,7-.34Z" style="fill:#ebebeb"></path><polygon points="477.93 64.48 558.39 64.48 558.39 169.21 478.47 168.8 477.93 64.48" style="fill:#e0e0e0"></polygon><rect x="473.3" y="64.48" width="80" height="103.93" transform="translate(1026.59 232.89) rotate(180)" style="fill:#f5f5f5"></rect><path d="M553.69,64.08V168.8H472.9V64.08ZM552.9,168V64.88H473.69V168Z" style="fill:#e0e0e0"></path><rect x="481.52" y="75.74" width="61.24" height="81.41" style="fill:#fff"></rect><path d="M481.52,75.74s0,.13,0,.39,0,.65,0,1.15c0,1,0,2.5,0,4.43,0,3.88,0,9.54.05,16.7,0,14.32.06,34.65.1,58.74l-.19-.18,61.24,0h0l-.2.2c0-30.32,0-58.42,0-81.41l.17.17-44.47-.09-12.38,0-3.26,0-1.13,0,1.09,0,3.23,0,12.35,0,44.57-.09h.17v.17c0,23,0,51.09,0,81.41v.21h-.21l-61.24,0h-.19v-.19c0-24.14.07-44.51.1-58.86,0-7.15,0-12.79.05-16.66,0-1.91,0-3.39,0-4.39,0-.49,0-.87,0-1.13S481.52,75.74,481.52,75.74Z" style="fill:#e0e0e0"></path><path d="M473.11,168.41a10.18,10.18,0,0,1,1.08-1.76c.71-1.05,1.72-2.5,2.87-4.06s2.25-2.94,3.06-3.92a10.17,10.17,0,0,1,1.4-1.52,10.88,10.88,0,0,1-1.17,1.7l-3,4-3,4A10.24,10.24,0,0,1,473.11,168.41Z" style="fill:#e0e0e0"></path><path d="M473.3,64.48A58.76,58.76,0,0,1,477.58,70a58.84,58.84,0,0,1,3.94,5.75,60.42,60.42,0,0,1-4.28-5.51A58.84,58.84,0,0,1,473.3,64.48Z" style="fill:#e0e0e0"></path><line x1="553.29" y1="64.48" x2="542.76" y2="76.15" style="fill:#fff"></line><path d="M542.76,76.15a75.91,75.91,0,0,1,5.12-6,75.43,75.43,0,0,1,5.41-5.7,72,72,0,0,1-5.11,6A70,70,0,0,1,542.76,76.15Z" style="fill:#e0e0e0"></path><path d="M553.29,168.41a72.87,72.87,0,0,1-5.18-5.43,69.86,69.86,0,0,1-4.87-5.71,68.36,68.36,0,0,1,5.18,5.43A65.72,65.72,0,0,1,553.29,168.41Z" style="fill:#e0e0e0"></path><path d="M495.38,133.73l1.52-2.07c1.18-1.61,2.43-3.16,3.5-4.83a8.1,8.1,0,0,0,.17-8.58c-.9-1.74-1.88-3.44-2.79-5.18a13.57,13.57,0,0,1-.61-12.85l-.51,0,.81-1.5-.13-.1-1,1-.07,0,2.42-3.28.11.06c-.22.39-.44.78-.67,1.17a17.3,17.3,0,0,1,5.34-3.94A8.65,8.65,0,0,0,505,92.15c.11.83.44.81,1,.55a13.85,13.85,0,0,1,6.46-1,44.82,44.82,0,0,1,9.15,1.35,3.11,3.11,0,0,0,3.43-.81,5.37,5.37,0,0,1,.73,3.06c.2-.49.41-1,.69-1.64l1.2,2.43.91-.66a5.21,5.21,0,0,1-2.2,4.94.74.74,0,0,0-.43,1c.46,1.91.84,3.83,1.25,5.75a2.76,2.76,0,0,1-.39,2.25,1.67,1.67,0,0,0,0,2.1c1,1.38,1.85,2.79,2.78,4.19.79,1.2.66,1.67-.68,2.26-.42.18-1.07.25-1.21.56s.21.85.34,1.3c.18.61.08.85-.69,1.56a4.62,4.62,0,0,1,.29.59c.14.46.21.92-.31,1.24a1,1,0,0,0-.4,1.31,8.46,8.46,0,0,1,.29,1,2.58,2.58,0,0,1-2.83,3.37c-1.39-.06-2.76-.27-4.14-.42-1.91-.19-1.39-.36-2.07,1.19a20.57,20.57,0,0,1-1.35,3.4,2.87,2.87,0,0,0,0,2.05c.62,2.35,1.37,4.66,2,7a45.61,45.61,0,0,1,1,4.48C513.54,138.84,505,135.46,495.38,133.73Z" style="fill:#ebebeb"></path><rect x="333.32" y="266.4" width="48.65" height="12.87" style="fill:#ebebeb"></rect><path d="M361.4,292.41a1,1,0,0,1,0-.23v-.66c0-.61,0-1.45,0-2.53,0-2.22-.05-5.42-.08-9.45l.15.15-48.65.1c.11-.11-.25.25.24-.25h0v12.86l-.24-.24,34.67.11,10.23.07,2.77,0,.72,0h.26s-.07,0-.23,0l-.69,0-2.72,0-10.17.07-34.84.11h-.25V279.55h0c.49-.49.14-.13.25-.24l48.65.09h.15v.15c0,4.07-.06,7.29-.08,9.54,0,1.07,0,1.9,0,2.5,0,.26,0,.46,0,.63A1.23,1.23,0,0,1,361.4,292.41Z" style="fill:#e0e0e0"></path><rect x="452.86" y="371.18" width="48.65" height="12.87" style="fill:#ebebeb"></rect><path d="M480.94,397.2s0-.09,0-.24l0-.66c0-.6,0-1.45,0-2.53,0-2.22,0-5.42-.08-9.44l.15.15-48.65.09.25-.24h0v6.52c0,2.14,0,4.26,0,6.33l-.24-.25,34.67.11,10.23.07,2.77,0h.73l.25,0h-.22l-.7,0-2.71,0-10.18.07-34.84.11h-.24v-.24c0-2.07,0-4.19,0-6.33v-6.52h0l.25-.25,48.65.1h.15v.15c0,4.06-.06,7.29-.08,9.53,0,1.07,0,1.9,0,2.5,0,.26,0,.47,0,.63A.85.85,0,0,1,480.94,397.2Z" style="fill:#e0e0e0"></path><rect x="645.05" y="216.16" width="48.65" height="12.87" style="fill:#ebebeb"></rect><path d="M673.13,242.18s0-.09,0-.24l0-.66c0-.6,0-1.45,0-2.53,0-2.22-.05-5.42-.09-9.44l.15.15-48.65.09.25-.24h0v6.52c0,2.14,0,4.26,0,6.33l-.24-.25,34.67.11,10.24.07,2.76,0h.73a1.27,1.27,0,0,1,.25,0h-.22l-.7,0-2.71,0-10.18.07-34.84.11h-.24v-.24c0-2.07,0-4.19,0-6.33v-6.52h0l.25-.25,48.65.1h.15v.15c0,4.06-.06,7.29-.08,9.53,0,1.07,0,1.9,0,2.5,0,.26,0,.47,0,.63A.85.85,0,0,1,673.13,242.18Z" style="fill:#e0e0e0"></path><rect x="600.25" y="25.7" width="48.65" height="12.87" style="fill:#ebebeb"></rect><path d="M628.33,51.72s0-.09,0-.24,0-.39,0-.66c0-.6,0-1.45,0-2.53,0-2.22,0-5.42-.08-9.45l.15.15-48.65.1.25-.25h0v6.53c0,2.15,0,4.27,0,6.33l-.24-.24,34.67.11,10.23.07,2.77,0,.73,0a.72.72,0,0,1,.25,0h-.22l-.7,0-2.71,0-10.18.07L579.68,52h-.24v-.25c0-2.06,0-4.18,0-6.33V38.85h0l.25-.24,48.65.09h.15v.15c0,4.07-.06,7.29-.08,9.54,0,1.07,0,1.9,0,2.5,0,.26,0,.47,0,.63A.85.85,0,0,1,628.33,51.72Z" style="fill:#e0e0e0"></path><rect x="62.55" y="73.67" width="48.65" height="12.87" style="fill:#ebebeb"></rect><path d="M90.62,99.69s0-.09,0-.24l0-.66c0-.6,0-1.45,0-2.53,0-2.22,0-5.42-.09-9.44l.15.15L42,87.06l.24-.24h0v6.52c0,2.14,0,4.26,0,6.33L42,99.44l34.67.11,10.24.07,2.76,0h.73l.25,0H90.4l-.69,0-2.72,0-10.18.07L42,99.93h-.24V93.36c0-1.08,0-2.16,0-3.25V86.84h0c.5-.5.14-.14.26-.25l48.64.1h.16v.15c0,4.06-.07,7.29-.09,9.53,0,1.07,0,1.9,0,2.5,0,.26,0,.47,0,.63A.85.85,0,0,1,90.62,99.69Z" style="fill:#e0e0e0"></path><rect x="88.17" y="219.12" width="48.65" height="12.87" style="fill:#ebebeb"></rect><path d="M116.25,245.14s0-.09,0-.24l0-.66c0-.6,0-1.45,0-2.53,0-2.22,0-5.42-.09-9.44l.15.15-48.65.09c.11-.11-.25.25.25-.24h0v6.52c0,2.14,0,4.26,0,6.33l-.24-.25,34.67.11,10.24.07,2.76,0H116l.25,0H116l-.69,0-2.72,0-10.18.07-34.84.11h-.24v-6.57c0-1.08,0-2.16,0-3.25v-3.27h0l.25-.25,48.65.09h.16v.16c0,4.06-.07,7.29-.09,9.53,0,1.07,0,1.9,0,2.5,0,.26,0,.47,0,.63A.85.85,0,0,1,116.25,245.14Z" style="fill:#e0e0e0"></path><path d="M496.53,247a1,1,0,0,1,0-.23c0-.17,0-.39,0-.66,0-.61,0-1.45,0-2.53,0-2.22,0-5.42-.08-9.45l.15.15-48.65.1c.11-.11-.25.25.24-.25h0V247l-.24-.24,34.67.11,10.23.07,2.77,0,.72,0h.26s-.07,0-.23,0l-.69,0-2.72,0-10.17.07-34.84.11h-.25V234.14h0c.49-.49.14-.13.25-.24l48.65.09h.15v.15c0,4.07-.06,7.29-.08,9.54,0,1.07,0,1.9,0,2.5,0,.26,0,.46,0,.63A1.23,1.23,0,0,1,496.53,247Z" style="fill:#e0e0e0"></path><path d="M503.13,234.13a.68.68,0,0,1,0-.24c0-.19,0-.41,0-.68,0-.64,0-1.5,0-2.58,0-2.26-.05-5.45-.09-9.37l.18.18-29.23.07c-.23.22.29-.3.24-.25h0v6.62c0,2.16,0,4.24,0,6.24l-.24-.23,20.91.11,6.1.07,1.64,0,.59,0a3.43,3.43,0,0,1-.53,0l-1.6,0-6,.07-21.07.11h-.23v-.24q0-3,0-6.24v-6.62h0l.25-.25,29.23.07h.18v.18c0,4-.07,7.19-.09,9.47,0,1.07,0,1.92,0,2.55A8.46,8.46,0,0,1,503.13,234.13Z" style="fill:#e0e0e0"></path><path d="M685.17,151.21a2.07,2.07,0,0,1,0-.23l0-.66c0-.61,0-1.45,0-2.53,0-2.23,0-5.42-.08-9.45l.15.15-48.65.1.25-.25h0v3.27c0,1.09,0,2.18,0,3.25v6.33l-.24-.24,34.67.11,10.23.07,2.77,0,.72,0h.26s-.07,0-.22,0h-.7l-2.71,0-10.18.06-34.84.12h-.24v-.25q0-3.11,0-6.33v-6.52h0l.25-.25,48.65.1h.15v.15c0,4.07-.06,7.29-.08,9.54,0,1.06,0,1.9,0,2.49V151C685.18,151.15,685.18,151.22,685.17,151.21Z" style="fill:#e0e0e0"></path><path d="M691.77,138.34a.68.68,0,0,1,0-.24c0-.19,0-.41,0-.69l0-2.58c0-2.25-.06-5.44-.1-9.36l.18.18-29.23.07c-.23.22.3-.3.24-.25h0v6.62c0,2.15,0,4.24,0,6.24l-.23-.23,20.91.11,6.09.06,1.64,0,.59,0a3.28,3.28,0,0,1-.53,0l-1.6,0-6,.07-21.07.11h-.24v-.24c0-2,0-4.09,0-6.24v-6.62h0l.25-.25,29.23.07H692v.18c0,4-.08,7.19-.1,9.47,0,1.07,0,1.92,0,2.54S691.78,138.35,691.77,138.34Z" style="fill:#e0e0e0"></path><path d="M400.11,51.46a2.07,2.07,0,0,1,0-.23l0-.66c0-.61,0-1.45,0-2.53,0-2.23,0-5.42-.08-9.45l.15.15-48.65.1.25-.25h0v3.28c0,1.1,0,2.18,0,3.25v6.33l-.24-.24,34.67.11,10.23.07,2.77,0,.72,0h.26s-.07,0-.22,0l-.7,0-2.71,0-10.18.07-34.84.11h-.24v-.25q0-3.1,0-6.33V38.6h0l.25-.24,48.65.09h.15v.15c0,4.07-.06,7.29-.08,9.54,0,1.06,0,1.9,0,2.5v.63C400.12,51.4,400.12,51.47,400.11,51.46Z" style="fill:#e0e0e0"></path><path d="M406.71,38.59a.68.68,0,0,1,0-.24c0-.19,0-.41,0-.68,0-.64,0-1.5-.05-2.58,0-2.26-.05-5.45-.09-9.37l.18.18L377.48,26c-.23.22.3-.3.24-.25h0v6.62c0,2.16,0,4.24,0,6.24l-.24-.23,20.92.11,6.09.06,1.64,0,.59,0a3.28,3.28,0,0,1-.53,0l-1.6,0-6,.07-21.08.11h-.23v-.24c0-2,0-4.08,0-6.24V25.73h0l.25-.25,29.23.07h.18v.18c0,4-.08,7.19-.1,9.47,0,1.07,0,1.92-.05,2.54A8.58,8.58,0,0,1,406.71,38.59Z" style="fill:#e0e0e0"></path><path d="M41.12,370a31.51,31.51,0,0,0-13.47-4.64c-2.2-.22-4.61-.16-6.38,1.17-.37.29-.74.71-.65,1.17a1.42,1.42,0,0,0,.62.79A19.26,19.26,0,0,0,41.12,370" style="fill:#e0e0e0"></path><path d="M40.78,369.62A66.15,66.15,0,0,1,32.07,362a22,22,0,0,1-5.45-10.09,4.05,4.05,0,0,1,.43-3.38c6.93,5.42,12.38,12.43,13.73,21.13" style="fill:#e0e0e0"></path><path d="M41.05,370a31.58,31.58,0,0,1,.16-11.43,15.44,15.44,0,0,1,6.09-9.43c1.2,2.81.68,6-.16,9a43.69,43.69,0,0,1-6,12.71" style="fill:#e0e0e0"></path><path d="M47.85,382.13c-4.13.51-7.72,2.68-10.81,5.47a20.5,20.5,0,0,0-6.18,10.61c4-.25,7.49-3.1,10-6.3s4.22-6.72,6.95-9.71" style="fill:#e0e0e0"></path><path d="M49.33,384.08a26.66,26.66,0,0,1,3.07-25.21c2.36,8.37,1.49,17.82-3.07,25.21" style="fill:#e0e0e0"></path><path d="M58.31,394.78a19.23,19.23,0,0,0-18.42,10.61c-.23.46-.43,1-.13,1.44a1.36,1.36,0,0,0,1.22.36c3.63-.23,6.85-2.42,9.51-4.91s5-5.36,7.9-7.51" style="fill:#e0e0e0"></path><path d="M58,394.2A34.25,34.25,0,0,1,57.68,375c.68-2.47,1.81-5.07,4.09-6.22a.8.8,0,0,1,.63-.11.84.84,0,0,1,.4.45,11.64,11.64,0,0,1,1,5.5,33.94,33.94,0,0,1-.86,5.57c-.72,3.4-1.1,7.06-3,10a22,22,0,0,0-1.19,2.19c-.35.75-.35,1-.68,1.6" style="fill:#e0e0e0"></path><path d="M81.81,397.74c-1.76-6.7.11-14.83,4.33-20.32.31-.41.73-.84,1.23-.79.78.07,1,1.11.95,1.89a36.71,36.71,0,0,1-6.51,19.22" style="fill:#e0e0e0"></path><path d="M84,399.21a29.53,29.53,0,0,0,24.26-4.94,19.67,19.67,0,0,0-13.13-1.61c-4.39,1-8.39,3-11.13,6.55" style="fill:#e0e0e0"></path><path d="M85.76,394.75c4.56-7.44,13.31-12.29,22-12.74-1,3.55-3.92,6.3-7.2,8A40.43,40.43,0,0,1,90,393.07c-1.41.27-3.33.57-4.25,1.68" style="fill:#e0e0e0"></path><path d="M82.26,373.09a63.65,63.65,0,0,0,2.82-12.9,21.46,21.46,0,0,0-2.57-12.75c-4.26,8.24-4.69,17.88-.37,26.09" style="fill:#e0e0e0"></path><path d="M96.61,365.84c5-9.06,15.14-16.29,25.43-17.3-4,9.88-14.79,17.51-25.43,17.3" style="fill:#e0e0e0"></path><path d="M93.47,367.61c7.43,1.14,13.76,5.88,20.71,8.76a9.29,9.29,0,0,0,4.68.89,3.66,3.66,0,0,0,2.29-6.48,10,10,0,0,0-3.4-2.06c-7.56-3.15-15.67-3.23-23.64-1.32" style="fill:#e0e0e0"></path><path d="M89.17,372.83c1.69.48,2.26,1.35,3.59,2.48a38.71,38.71,0,0,0,15.7,8.07c.6.15,1.39.21,1.69-.34s-.07-1-.41-1.46a21.63,21.63,0,0,0-9.48-6.44c-3.62-1.35-6.76-3-11.09-2.63" style="fill:#e0e0e0"></path><path d="M84.32,341.35a29.69,29.69,0,0,0,22.78,7.75,1.57,1.57,0,0,0,1-.37c.57-.63-.12-1.59-.78-2.11-6.7-5.22-14.81-7.39-23-5.27" style="fill:#e0e0e0"></path><path d="M90.07,339.24a31.8,31.8,0,0,1,28.43-4.69A22.57,22.57,0,0,1,105,340.5a42.71,42.71,0,0,1-14.88-1.26" style="fill:#e0e0e0"></path><path d="M87.79,324.78c-.66-6.68-.23-12-.7-18.68,0-.53-.15-1.18-.65-1.37-.7-.27-1.28.59-1.51,1.3a21.38,21.38,0,0,0,2.85,18.6" style="fill:#e0e0e0"></path><path d="M87.31,325.52a39.24,39.24,0,0,0,11.07-10.76c2.19-3,4-6.58,3.53-10.25a10.55,10.55,0,0,0-8,4,22.33,22.33,0,0,0-4.08,8.2c-.88,2.94-1.5,6-2.54,8.85" style="fill:#e0e0e0"></path><path d="M98.19,322.5a89.4,89.4,0,0,0,27.25-16.07c-3.26-1.31-7-.53-10.24.79A32.3,32.3,0,0,0,98,322.42" style="fill:#e0e0e0"></path><path d="M90.37,329.18a55.56,55.56,0,0,0,15.13.07c4.9-.82,9.54-2.76,14.12-4.69a1.63,1.63,0,0,0,1-.73,1.11,1.11,0,0,0-.34-1.21,3,3,0,0,0-1.2-.57c-5-1.39-10.37-.74-15.27.92a69.92,69.92,0,0,0-13.4,6.21" style="fill:#e0e0e0"></path><path d="M61.64,341.58c-3.43-6.93-3.21-15-.24-22.16,2.08,3.19,2.34,7.24,2,11s-1.54,7.68-1.61,11.48" style="fill:#e0e0e0"></path><path d="M47.93,334.66a30.92,30.92,0,0,0-23,9.78,21.38,21.38,0,0,0,12.57-2.33,63.46,63.46,0,0,0,10.77-7.21" style="fill:#e0e0e0"></path><path d="M38.71,331.58c-4.19-.34-8.23-.86-12.26.38a14.68,14.68,0,0,0-9.34,7.92,22.14,22.14,0,0,0,11.49-2.17,66.41,66.41,0,0,0,10.11-6.13" style="fill:#e0e0e0"></path><path d="M52.36,331.72c-3.77-2.47-7.64-5-12-6s-9.48-.27-12.54,3c3.56,2.09,7.87,2.33,12,2.33s9.17-.05,13.06,1.33" style="fill:#e0e0e0"></path><path d="M52.38,331.92c-6.45-6.33-8.89-17.7-6.3-26.36a40.15,40.15,0,0,1,6.3,26.36" style="fill:#e0e0e0"></path><path d="M70.11,314c1.22-2.82,2.07-5.79,3.16-8.67a24.83,24.83,0,0,1,4.51-8,11.84,11.84,0,0,1,8-4.14A32.2,32.2,0,0,1,70.27,314" style="fill:#e0e0e0"></path><path d="M66.9,317.72c-2-2.77-4.34-6.53-7.06-8.6s-6.29-3.31-9.62-2.52A22.41,22.41,0,0,0,66.9,317.72" style="fill:#e0e0e0"></path><path d="M67.54,314.21a48.13,48.13,0,0,1-3.18-10.3A16,16,0,0,1,66,293.44c3.53,6.69,4.67,13.87,1.74,20.85" style="fill:#e0e0e0"></path><path d="M70.14,293.44c2-6.63,8.08-11.52,14.64-13.76a5.38,5.38,0,0,1,2.56-.38,2.2,2.2,0,0,1,1.89,1.58c.24,1.12-.69,2.14-1.57,2.89a49.87,49.87,0,0,1-17.52,9.67" style="fill:#e0e0e0"></path><path d="M70.22,288c.25-4.27.52-8.61,1.91-12.66s4.07-7.85,8-9.63c.66,4.32-1.24,8.62-3.54,12.34s-5.07,7.22-6.45,11.37" style="fill:#e0e0e0"></path><path d="M70.11,291c-1.66-4.83-1.83-11-4.72-15.18-2-2.95-5.27-4.95-7-8.07a12.28,12.28,0,0,0,.41,9.16,26.52,26.52,0,0,0,5.35,7.66c2.15,2.29,4,4,6,6.43" style="fill:#e0e0e0"></path><path d="M70.14,433.3c-.13,0-.24-32.25-.25-72s.09-72,.22-72,.24,32.24.25,72S70.27,433.3,70.14,433.3Z" style="fill:#e0e0e0"></path><path d="M98.32,336.71a7.17,7.17,0,0,1-1.21.46l-3.34,1.12c-2.81,1-6.68,2.35-10.87,4.07s-8.07,3.23-10.3,5.16a7.58,7.58,0,0,0-2.07,2.74c-.32.75-.38,1.22-.42,1.21s0-.12,0-.34a5.86,5.86,0,0,1,.24-.94,7.25,7.25,0,0,1,2-2.92,17.94,17.94,0,0,1,4.47-2.77c1.79-.84,3.77-1.71,5.87-2.57,4.21-1.73,8.1-3.07,11-3.95,1.42-.44,2.58-.77,3.38-1A7,7,0,0,1,98.32,336.71Z" style="fill:#e0e0e0"></path><path d="M107.55,314s-.1.13-.33.36l-1,1-3.86,3.51L89.46,330.32c-5,4.46-9.35,8.73-12.36,11.95-1.5,1.6-2.69,2.93-3.5,3.86l-.93,1.07a2.19,2.19,0,0,1-.35.35,1.93,1.93,0,0,1,.28-.41c.19-.26.48-.65.86-1.13.77-1,1.92-2.33,3.4-4A162.93,162.93,0,0,1,89.15,330c5-4.46,9.62-8.46,12.95-11.35l4-3.39,1.09-.91A2.65,2.65,0,0,1,107.55,314Z" style="fill:#e0e0e0"></path><path d="M84,334.86c-.13-.06.92-2.48,2-5.54s1.55-5.64,1.68-5.62a19.18,19.18,0,0,1-1.24,5.77,39.25,39.25,0,0,1-1.56,3.87A5.78,5.78,0,0,1,84,334.86Z" style="fill:#e0e0e0"></path><path d="M70.17,354.38a7.55,7.55,0,0,1-.77-.9l-2-2.54c-1.67-2.15-4-5.12-6.55-8.37s-4.95-6.17-6.66-8.28l-2-2.5a6.71,6.71,0,0,1-.7-1,5.18,5.18,0,0,1,.84.84c.52.56,1.25,1.38,2.14,2.41,1.78,2.06,4.2,4.94,6.78,8.2s4.84,6.26,6.44,8.46c.8,1.1,1.44,2,1.86,2.63A5.41,5.41,0,0,1,70.17,354.38Z" style="fill:#e0e0e0"></path><path d="M64,346.44a11.32,11.32,0,0,1-2.58-4.84,13.78,13.78,0,0,1-.59-4.89l.2,0c-.09.37-.15.57-.19.56s0-.21,0-.59H61a21.87,21.87,0,0,0,.82,4.76A38.33,38.33,0,0,0,64,346.44Z" style="fill:#e0e0e0"></path><path d="M56,336.41a8.81,8.81,0,0,0-1.81-1.05,12.05,12.05,0,0,0-5-.4,30.74,30.74,0,0,0-5,.82,17.36,17.36,0,0,1-2.08.5,6.92,6.92,0,0,1,2-.82,23.18,23.18,0,0,1,5.11-1,10.81,10.81,0,0,1,5.17.56A3.23,3.23,0,0,1,56,336.41Z" style="fill:#e0e0e0"></path><path d="M54.13,334c0,.07-1.06-.42-2.77-1a28.25,28.25,0,0,0-6.91-1.42,28,28,0,0,0-7,.36c-1.79.32-2.87.65-2.89.57a2.6,2.6,0,0,1,.73-.31,18.7,18.7,0,0,1,2.09-.59,24.58,24.58,0,0,1,14.13,1.08,17.63,17.63,0,0,1,2,.9A2.65,2.65,0,0,1,54.13,334Z" style="fill:#e0e0e0"></path><path d="M70.11,323.7a58.25,58.25,0,0,1-2-7,58.69,58.69,0,0,1-1.57-7.12,55,55,0,0,1,2,7A56.41,56.41,0,0,1,70.11,323.7Z" style="fill:#e0e0e0"></path><path d="M70.24,323.7A33,33,0,0,0,68,319.5a18.79,18.79,0,0,0-3.29-3.4,3.08,3.08,0,0,1,1.27.65,10.19,10.19,0,0,1,2.4,2.48A9.3,9.3,0,0,1,70.24,323.7Z" style="fill:#e0e0e0"></path><path d="M70.14,416.11s-.14-.78-.51-2.15a29.67,29.67,0,0,0-2.15-5.58,77.37,77.37,0,0,0-11.43-16.1c-2.55-2.92-5-5.67-7.13-8.3a57.28,57.28,0,0,1-5.1-7.36,34.23,34.23,0,0,1-2.57-5.46q-.36-1-.51-1.56a2.36,2.36,0,0,1-.13-.55s.27.73.8,2.05a42,42,0,0,0,2.69,5.36,63.49,63.49,0,0,0,5.15,7.25c2.11,2.6,4.59,5.34,7.15,8.26,5.16,5.8,9.21,11.64,11.38,16.27a28.06,28.06,0,0,1,2,5.68c.15.7.25,1.24.29,1.62A2.45,2.45,0,0,1,70.14,416.11Z" style="fill:#e0e0e0"></path><path d="M95.6,387.35a12.18,12.18,0,0,1-1.33.75,28.25,28.25,0,0,0-3.46,2.29,39.63,39.63,0,0,0-4.55,4.14c-1.59,1.69-3.24,3.64-4.91,5.74C78,404.48,74.86,408.2,73,411.18a41.32,41.32,0,0,0-2.1,3.58,11.21,11.21,0,0,1-.74,1.35,1.42,1.42,0,0,1,.13-.38c.1-.24.23-.6.44-1.05a34.23,34.23,0,0,1,2-3.68A121,121,0,0,1,81,400c1.68-2.1,3.35-4.06,5-5.74a37.87,37.87,0,0,1,4.66-4.12,24,24,0,0,1,3.58-2.18c.44-.22.8-.36,1-.46S95.6,387.33,95.6,387.35Z" style="fill:#e0e0e0"></path><path d="M96.1,396.68a18.56,18.56,0,0,1-2.82.41,36.28,36.28,0,0,0-6.69,1.32,20.13,20.13,0,0,0-6,3.14c-1.38,1.07-2,1.95-2.09,1.9a2,2,0,0,1,.42-.65,10.79,10.79,0,0,1,1.46-1.51A18.32,18.32,0,0,1,86.45,398a30.13,30.13,0,0,1,6.8-1.2A15.17,15.17,0,0,1,96.1,396.68Z" style="fill:#e0e0e0"></path><path d="M79.33,402.42c-.15-.08,1.12-2,2.11-4.63s1.14-5,1.31-4.92a4.33,4.33,0,0,1,0,1.51,16.13,16.13,0,0,1-.82,3.56,16.45,16.45,0,0,1-1.64,3.27A4.57,4.57,0,0,1,79.33,402.42Z" style="fill:#e0e0e0"></path><path d="M103.85,362.3a1.67,1.67,0,0,1-.45.24l-1.33.6c-.58.25-1.28.57-2.08,1s-1.72.83-2.69,1.41l-1.54.88c-.53.31-1.06.67-1.62,1-1.14.69-2.27,1.54-3.49,2.4a65.76,65.76,0,0,0-7.27,6.4,64.47,64.47,0,0,0-6.14,7.49c-.83,1.24-1.63,2.4-2.28,3.56-.33.57-.68,1.11-1,1.66l-.82,1.56c-.55,1-.94,1.93-1.32,2.75s-.69,1.52-.92,2.11l-.55,1.34c-.13.31-.21.47-.23.46a3.65,3.65,0,0,1,.14-.49q.18-.54.48-1.38a22.53,22.53,0,0,1,.84-2.15c.36-.82.73-1.78,1.26-2.78.26-.51.53-1,.8-1.6s.63-1.1,1-1.68c.64-1.17,1.44-2.35,2.26-3.61a64.17,64.17,0,0,1,6.17-7.57,61.77,61.77,0,0,1,7.35-6.41c1.23-.86,2.38-1.71,3.53-2.38.57-.35,1.11-.71,1.65-1l1.56-.86c1-.56,1.93-1,2.74-1.36A22.4,22.4,0,0,1,102,363l1.36-.53A2.8,2.8,0,0,1,103.85,362.3Z" style="fill:#e0e0e0"></path><path d="M83.7,375.8a3.24,3.24,0,0,1,1.11-1.65,7,7,0,0,1,4.46-1.71,12.11,12.11,0,0,1,4.7.92,7.13,7.13,0,0,1,1.78.86,10.27,10.27,0,0,1-1.89-.55,14.15,14.15,0,0,0-4.57-.76A7.3,7.3,0,0,0,85,374.4,14.09,14.09,0,0,0,83.7,375.8Z" style="fill:#e0e0e0"></path><path d="M80.69,378.91a12,12,0,0,0,1-8.43,2.68,2.68,0,0,1,.52,1.2,8.51,8.51,0,0,1,.23,3.16,8.39,8.39,0,0,1-1,3C81.08,378.58,80.73,378.94,80.69,378.91Z" style="fill:#e0e0e0"></path><path d="M47.87,420.73c.7,12.32,4.41,24.85,10.12,37.52H82.83c5.45-12.54,8.9-25.06,9.52-37.52Z" style="fill:#e0e0e0"></path><path d="M88.32,440.67c0,.13-8.18.23-18.26.23s-18.26-.1-18.26-.23,8.17-.24,18.26-.24S88.32,440.54,88.32,440.67Z" style="fill:#fafafa"></path><path d="M87.77,445.13c0,.13-7.67.23-17.12.23s-17.13-.1-17.13-.23,7.67-.23,17.13-.23S87.77,445,87.77,445.13Z" style="fill:#fafafa"></path><path d="M58.39,428.82a68.28,68.28,0,0,1,0,11.44,71.24,71.24,0,0,1,0-11.44Z" style="fill:#fafafa"></path><path d="M71.7,428.82a76.43,76.43,0,0,1,0,11.85,76.43,76.43,0,0,1,0-11.85Z" style="fill:#fafafa"></path><path d="M84.19,428.72a76.12,76.12,0,0,1,0,12.08,79.42,79.42,0,0,1,0-12.08Z" style="fill:#fafafa"></path><path d="M91.56,428.82c0,.13-9.59.23-21.42.23s-21.42-.1-21.42-.23,9.59-.23,21.42-.23S91.56,428.69,91.56,428.82Z" style="fill:#fafafa"></path><path d="M641.4,370a31.41,31.41,0,0,0-13.47-4.64c-2.2-.22-4.61-.16-6.37,1.17a1.33,1.33,0,0,0-.66,1.17,1.42,1.42,0,0,0,.62.79A19.26,19.26,0,0,0,641.4,370" style="fill:#e0e0e0"></path><path d="M641.06,369.62a65.43,65.43,0,0,1-8.7-7.66,22,22,0,0,1-5.46-10.09,4.09,4.09,0,0,1,.43-3.38c6.94,5.42,12.39,12.43,13.73,21.13" style="fill:#e0e0e0"></path><path d="M641.33,370a31.58,31.58,0,0,1,.16-11.43,15.48,15.48,0,0,1,6.09-9.43c1.2,2.81.68,6-.16,9a43.44,43.44,0,0,1-6,12.71" style="fill:#e0e0e0"></path><path d="M648.13,382.13a20,20,0,0,0-10.8,5.47,20.36,20.36,0,0,0-6.18,10.61c4.05-.25,7.48-3.1,10-6.3s4.22-6.72,7-9.71" style="fill:#e0e0e0"></path><path d="M649.61,384.08a26.66,26.66,0,0,1,3.08-25.21c2.35,8.37,1.49,17.82-3.08,25.21" style="fill:#e0e0e0"></path><path d="M658.6,394.78a19.26,19.26,0,0,0-18.43,10.61c-.23.46-.43,1-.13,1.44a1.37,1.37,0,0,0,1.23.36c3.63-.23,6.85-2.42,9.5-4.91s5-5.36,7.91-7.51" style="fill:#e0e0e0"></path><path d="M658.31,394.2A34.34,34.34,0,0,1,658,375c.67-2.47,1.81-5.07,4.09-6.22a.77.77,0,0,1,.62-.11.81.81,0,0,1,.4.45,11.52,11.52,0,0,1,1,5.5,33.94,33.94,0,0,1-.86,5.57c-.72,3.4-1.1,7.06-3,10a20.06,20.06,0,0,0-1.18,2.19c-.36.75-.36,1-.68,1.6" style="fill:#e0e0e0"></path><path d="M682.09,397.74c-1.76-6.7.11-14.83,4.34-20.32.31-.41.72-.84,1.23-.79.78.07,1,1.11.94,1.89a36.62,36.62,0,0,1-6.51,19.22" style="fill:#e0e0e0"></path><path d="M684.24,399.21a29.55,29.55,0,0,0,24.26-4.94,19.71,19.71,0,0,0-13.14-1.61c-4.38,1-8.39,3-11.12,6.55" style="fill:#e0e0e0"></path><path d="M686.05,394.75c4.56-7.44,13.3-12.29,22-12.74-1,3.55-3.91,6.3-7.2,8s-7,2.38-10.57,3.09c-1.4.27-3.33.57-4.24,1.68" style="fill:#e0e0e0"></path><path d="M682.55,373.09a64.31,64.31,0,0,0,2.81-12.9,21.39,21.39,0,0,0-2.57-12.75c-4.26,8.24-4.69,17.88-.37,26.09" style="fill:#e0e0e0"></path><path d="M696.89,365.84c5-9.06,15.15-16.29,25.43-17.3-4,9.88-14.79,17.51-25.43,17.3" style="fill:#e0e0e0"></path><path d="M693.76,367.61c7.43,1.14,13.76,5.88,20.7,8.76a9.33,9.33,0,0,0,4.68.89,4,4,0,0,0,3.52-2.84,4.09,4.09,0,0,0-1.22-3.64,10.1,10.1,0,0,0-3.4-2.06c-7.57-3.15-15.68-3.23-23.64-1.32" style="fill:#e0e0e0"></path><path d="M689.46,372.83c1.68.48,2.25,1.35,3.59,2.48a38.58,38.58,0,0,0,15.7,8.07c.6.15,1.38.21,1.68-.34s-.07-1-.41-1.46a21.57,21.57,0,0,0-9.48-6.44c-3.62-1.35-6.76-3-11.08-2.63" style="fill:#e0e0e0"></path><path d="M684.6,341.35a29.71,29.71,0,0,0,22.78,7.75,1.56,1.56,0,0,0,1-.37c.57-.63-.11-1.59-.78-2.11-6.7-5.22-14.81-7.39-23-5.27" style="fill:#e0e0e0"></path><path d="M690.36,339.24a31.78,31.78,0,0,1,28.42-4.69,22.54,22.54,0,0,1-13.54,5.95,42.69,42.69,0,0,1-14.88-1.26" style="fill:#e0e0e0"></path><path d="M688.07,324.78c-.66-6.68-.23-12-.69-18.68,0-.53-.16-1.18-.66-1.37-.7-.27-1.28.59-1.51,1.3a21.41,21.41,0,0,0,2.85,18.6" style="fill:#e0e0e0"></path><path d="M687.59,325.52a39.24,39.24,0,0,0,11.07-10.76c2.19-3,4-6.58,3.54-10.25a10.59,10.59,0,0,0-8,4,22.16,22.16,0,0,0-4.07,8.2c-.89,2.94-1.51,6-2.55,8.85" style="fill:#e0e0e0"></path><path d="M698.47,322.5a89.4,89.4,0,0,0,27.25-16.07c-3.25-1.31-7-.53-10.24.79a32.24,32.24,0,0,0-17.15,15.2" style="fill:#e0e0e0"></path><path d="M690.65,329.18a55.56,55.56,0,0,0,15.13.07c4.91-.82,9.54-2.76,14.13-4.69a1.66,1.66,0,0,0,1-.73,1.1,1.1,0,0,0-.35-1.21,3,3,0,0,0-1.2-.57c-5-1.39-10.36-.74-15.27.92a70.2,70.2,0,0,0-13.4,6.21" style="fill:#e0e0e0"></path><path d="M661.92,341.58c-3.43-6.93-3.21-15-.24-22.16,2.09,3.19,2.34,7.24,2,11s-1.53,7.68-1.61,11.48" style="fill:#e0e0e0"></path><path d="M648.21,334.66a30.92,30.92,0,0,0-23,9.78,21.38,21.38,0,0,0,12.57-2.33,63.94,63.94,0,0,0,10.78-7.21" style="fill:#e0e0e0"></path><path d="M639,331.58c-4.19-.34-8.22-.86-12.25.38a14.68,14.68,0,0,0-9.34,7.92,22.16,22.16,0,0,0,11.49-2.17,66.31,66.31,0,0,0,10.1-6.13" style="fill:#e0e0e0"></path><path d="M652.64,331.72c-3.77-2.47-7.64-5-12-6s-9.48-.27-12.54,3c3.55,2.09,7.86,2.33,12,2.33s9.18-.05,13.06,1.33" style="fill:#e0e0e0"></path><path d="M652.66,331.92c-6.44-6.33-8.89-17.7-6.29-26.36a40.15,40.15,0,0,1,6.29,26.36" style="fill:#e0e0e0"></path><path d="M670.39,314c1.22-2.82,2.07-5.79,3.17-8.67a24.81,24.81,0,0,1,4.5-8,11.88,11.88,0,0,1,8-4.14A32.2,32.2,0,0,1,670.55,314" style="fill:#e0e0e0"></path><path d="M667.19,317.72c-2-2.77-4.34-6.53-7.07-8.6s-6.28-3.31-9.61-2.52a22.38,22.38,0,0,0,16.68,11.12" style="fill:#e0e0e0"></path><path d="M667.83,314.21a47.58,47.58,0,0,1-3.18-10.3,16,16,0,0,1,1.61-10.47c3.54,6.69,4.68,13.87,1.75,20.85" style="fill:#e0e0e0"></path><path d="M670.43,293.44c2-6.63,8.07-11.52,14.63-13.76a5.42,5.42,0,0,1,2.57-.38,2.22,2.22,0,0,1,1.89,1.58c.24,1.12-.7,2.14-1.57,2.89a50,50,0,0,1-17.52,9.67" style="fill:#e0e0e0"></path><path d="M670.5,288c.25-4.27.52-8.61,1.91-12.66s4.07-7.85,8-9.63c.67,4.32-1.24,8.62-3.54,12.34s-5.07,7.22-6.45,11.37" style="fill:#e0e0e0"></path><path d="M670.39,291c-1.65-4.83-1.82-11-4.72-15.18-2-2.95-5.26-4.95-7-8.07a12.27,12.27,0,0,0,.4,9.16,26.55,26.55,0,0,0,5.36,7.66c2.14,2.29,4,4,6,6.43" style="fill:#e0e0e0"></path><path d="M670.43,433.3c-.13,0-.24-32.25-.25-72s.09-72,.21-72,.24,32.24.25,72S670.55,433.3,670.43,433.3Z" style="fill:#e0e0e0"></path><path d="M698.6,336.71a7.17,7.17,0,0,1-1.21.46l-3.34,1.12c-2.81,1-6.67,2.35-10.87,4.07s-8.07,3.23-10.3,5.16a7.58,7.58,0,0,0-2.07,2.74c-.32.75-.37,1.22-.42,1.21a1.1,1.1,0,0,1,0-.34,4.77,4.77,0,0,1,.23-.94,7.46,7.46,0,0,1,2-2.92,18.12,18.12,0,0,1,4.47-2.77c1.79-.84,3.77-1.71,5.88-2.57,4.2-1.73,8.1-3.07,10.94-3.95,1.42-.44,2.58-.77,3.39-1A6.83,6.83,0,0,1,698.6,336.71Z" style="fill:#e0e0e0"></path><path d="M707.84,314a2.65,2.65,0,0,1-.34.36l-1,1-3.86,3.51-12.85,11.45c-5,4.46-9.36,8.73-12.37,11.95-1.5,1.6-2.69,2.93-3.49,3.86L673,347.2c-.21.24-.33.36-.35.35a2.62,2.62,0,0,1,.28-.41c.19-.26.48-.65.87-1.13.76-1,1.91-2.33,3.39-4A163.32,163.32,0,0,1,689.44,330c5-4.46,9.61-8.46,12.94-11.35l4-3.39,1.1-.91A2.15,2.15,0,0,1,707.84,314Z" style="fill:#e0e0e0"></path><path d="M684.33,334.86c-.13-.06.91-2.48,2-5.54s1.55-5.64,1.68-5.62a18.46,18.46,0,0,1-1.24,5.77,34.85,34.85,0,0,1-1.56,3.87A6,6,0,0,1,684.33,334.86Z" style="fill:#e0e0e0"></path><path d="M670.46,354.38a7,7,0,0,1-.78-.9c-.52-.68-1.19-1.53-2-2.54-1.66-2.15-4-5.12-6.54-8.37s-4.95-6.17-6.67-8.28l-2-2.5a5.13,5.13,0,0,1-.7-1,6.06,6.06,0,0,1,.83.84c.52.56,1.25,1.38,2.14,2.41,1.79,2.06,4.2,4.94,6.78,8.2s4.85,6.26,6.44,8.46c.8,1.1,1.44,2,1.87,2.63A6.21,6.21,0,0,1,670.46,354.38Z" style="fill:#e0e0e0"></path><path d="M664.28,346.44a11.16,11.16,0,0,1-2.59-4.84,13.78,13.78,0,0,1-.59-4.89l.21,0c-.09.37-.16.57-.2.56s0-.21,0-.59h.21a22,22,0,0,0,.83,4.76A35.33,35.33,0,0,0,664.28,346.44Z" style="fill:#e0e0e0"></path><path d="M656.3,336.41a8.81,8.81,0,0,0-1.81-1.05,12,12,0,0,0-5-.4,30.37,30.37,0,0,0-5.05.82,18.45,18.45,0,0,1-2.08.5,6.75,6.75,0,0,1,2-.82,23,23,0,0,1,5.1-1,10.85,10.85,0,0,1,5.18.56A3.23,3.23,0,0,1,656.3,336.41Z" style="fill:#e0e0e0"></path><path d="M654.41,334c0,.07-1-.42-2.77-1a28.25,28.25,0,0,0-6.91-1.42,28,28,0,0,0-7,.36c-1.78.32-2.86.65-2.89.57a2.59,2.59,0,0,1,.74-.31,18.09,18.09,0,0,1,2.09-.59,24.6,24.6,0,0,1,14.13,1.08,18.19,18.19,0,0,1,2,.9C654.18,333.8,654.43,334,654.41,334Z" style="fill:#e0e0e0"></path><path d="M670.39,323.7a58.25,58.25,0,0,1-2-7,55.3,55.3,0,0,1-1.56-7.12,57,57,0,0,1,2,7A55.24,55.24,0,0,1,670.39,323.7Z" style="fill:#e0e0e0"></path><path d="M670.52,323.7a33,33,0,0,0-2.24-4.2,18.42,18.42,0,0,0-3.29-3.4,3,3,0,0,1,1.27.65,10.39,10.39,0,0,1,2.41,2.48A9.34,9.34,0,0,1,670.52,323.7Z" style="fill:#e0e0e0"></path><path d="M670.43,416.11s-.15-.78-.51-2.15a30.56,30.56,0,0,0-2.16-5.58,77,77,0,0,0-11.43-16.1c-2.55-2.92-5-5.67-7.13-8.3a59.38,59.38,0,0,1-5.1-7.36,35.14,35.14,0,0,1-2.57-5.46q-.36-1-.51-1.56a3.31,3.31,0,0,1-.13-.55s.28.73.81,2.05a39.5,39.5,0,0,0,2.69,5.36,62.26,62.26,0,0,0,5.15,7.25c2.11,2.6,4.59,5.34,7.14,8.26,5.17,5.8,9.21,11.64,11.38,16.27a27.46,27.46,0,0,1,2,5.68c.15.7.25,1.24.29,1.62A3,3,0,0,1,670.43,416.11Z" style="fill:#e0e0e0"></path><path d="M695.89,387.35a13.21,13.21,0,0,1-1.34.75,29,29,0,0,0-3.46,2.29,38.79,38.79,0,0,0-4.54,4.14c-1.6,1.69-3.24,3.64-4.92,5.74-3.35,4.21-6.49,7.93-8.37,10.91-1,1.47-1.65,2.71-2.1,3.58a15,15,0,0,1-.73,1.35s0-.14.12-.38.23-.6.45-1.05a33.82,33.82,0,0,1,2-3.68,121.4,121.4,0,0,1,8.29-11c1.68-2.1,3.34-4.06,5-5.74a37.13,37.13,0,0,1,4.65-4.12,24.48,24.48,0,0,1,3.58-2.18c.44-.22.8-.36,1-.46S695.88,387.33,695.89,387.35Z" style="fill:#e0e0e0"></path><path d="M696.39,396.68a19.15,19.15,0,0,1-2.82.41,36.12,36.12,0,0,0-6.69,1.32,19.88,19.88,0,0,0-6,3.14c-1.38,1.07-2,1.95-2.1,1.9a2,2,0,0,1,.42-.65,10.4,10.4,0,0,1,1.47-1.51,18.16,18.16,0,0,1,6.05-3.33,30.22,30.22,0,0,1,6.8-1.2A15.3,15.3,0,0,1,696.39,396.68Z" style="fill:#e0e0e0"></path><path d="M679.61,402.42c-.14-.08,1.13-2,2.11-4.63s1.15-5,1.31-4.92a4.33,4.33,0,0,1,0,1.51,16.13,16.13,0,0,1-.82,3.56,17.05,17.05,0,0,1-1.63,3.27C680,402,679.67,402.45,679.61,402.42Z" style="fill:#e0e0e0"></path><path d="M704.13,362.3a1.67,1.67,0,0,1-.45.24l-1.32.6c-.58.25-1.29.57-2.08,1s-1.73.83-2.7,1.41l-1.54.88c-.53.31-1.06.67-1.62,1-1.13.69-2.27,1.54-3.48,2.4a60.06,60.06,0,0,0-13.42,13.89c-.82,1.24-1.63,2.4-2.28,3.56-.33.57-.68,1.11-1,1.66l-.82,1.56c-.55,1-.94,1.93-1.32,2.75s-.68,1.52-.91,2.11-.41,1-.56,1.34a2.19,2.19,0,0,1-.22.46,1.9,1.9,0,0,1,.13-.49q.2-.54.48-1.38a22.53,22.53,0,0,1,.84-2.15c.36-.82.74-1.78,1.27-2.78.25-.51.52-1,.8-1.6s.62-1.1.95-1.68c.64-1.17,1.44-2.35,2.26-3.61a57.27,57.27,0,0,1,13.51-14c1.23-.86,2.38-1.71,3.53-2.38.57-.35,1.11-.71,1.65-1l1.56-.86c1-.56,1.93-1,2.74-1.36a21.4,21.4,0,0,1,2.13-.91l1.36-.53A2.89,2.89,0,0,1,704.13,362.3Z" style="fill:#e0e0e0"></path><path d="M684,375.8a3.33,3.33,0,0,1,1.11-1.65,7,7,0,0,1,4.46-1.71,12.07,12.07,0,0,1,4.7.92,7.13,7.13,0,0,1,1.78.86,10.27,10.27,0,0,1-1.89-.55,14.15,14.15,0,0,0-4.57-.76,7.26,7.26,0,0,0-4.26,1.49A15.16,15.16,0,0,0,684,375.8Z" style="fill:#e0e0e0"></path><path d="M681,378.91a16.93,16.93,0,0,0,1.27-4.12,16.46,16.46,0,0,0-.29-4.31c.06,0,.31.42.53,1.2a8.57,8.57,0,0,1-.72,6.18C681.36,378.58,681,378.94,681,378.91Z" style="fill:#e0e0e0"></path><path d="M648.16,420.73c.69,12.32,4.4,24.85,10.12,37.52h24.83c5.45-12.54,8.91-25.06,9.52-37.52Z" style="fill:#e0e0e0"></path><path d="M688.6,440.67c0,.13-8.17.23-18.26.23s-18.26-.1-18.26-.23,8.17-.24,18.26-.24S688.6,440.54,688.6,440.67Z" style="fill:#fafafa"></path><path d="M688.05,445.13c0,.13-7.67.23-17.12.23s-17.12-.1-17.12-.23,7.66-.23,17.12-.23S688.05,445,688.05,445.13Z" style="fill:#fafafa"></path><path d="M658.68,428.82a71.24,71.24,0,0,1,0,11.44,68.28,68.28,0,0,1,0-11.44Z" style="fill:#fafafa"></path><path d="M672,428.82a73.26,73.26,0,0,1,0,11.85,76.43,76.43,0,0,1,0-11.85Z" style="fill:#fafafa"></path><path d="M684.48,428.72a79.42,79.42,0,0,1,0,12.08,76.12,76.12,0,0,1,0-12.08Z" style="fill:#fafafa"></path><path d="M691.84,428.82c0,.13-9.59.23-21.42.23S649,429,649,428.82s9.59-.23,21.42-.23S691.84,428.69,691.84,428.82Z" style="fill:#fafafa"></path></g><g id="freepik--Floor--inject-8"><path d="M712,461s-.59,0-1.74,0l-5.11,0-19.64.05-72.23.08L375,461.3l-238.35-.08-72.23-.08-19.63-.05-5.11,0c-1.15,0-1.74,0-1.74,0l1.74,0,5.11,0,19.63,0,72.23-.09L375,460.78l238.3.07,72.23.09,19.64,0,5.11,0Z" style="fill:#263238"></path></g><g id="freepik--Plant--inject-8"><path d="M374.3,426.32s-5.08-34.92-4.66-55.23,0-43.17,0-43.17H372s-1.59,40.32.14,64.64,6.26,33.76,6.26,33.76H374.3" style="fill:#263238"></path><path d="M389.43,288.63a6.14,6.14,0,0,0-2.14-3.13c-1.48-.94-3.43-.55-5.08,0-7.08,2.5-13.34,15.69-16.2,22.62l9.39,31.64C392.34,324.07,395.28,303.45,389.43,288.63Z" style="fill:#455a64"></path><path d="M386.75,286.78a2.29,2.29,0,0,1-.14.42l-.46,1.15c-.41,1-1,2.44-1.68,4.24-1.38,3.59-3.14,8.61-4.72,14.27s-2.65,10.88-3.31,14.67c-.34,1.89-.59,3.43-.75,4.49-.08.5-.15.91-.2,1.23a2.39,2.39,0,0,1-.09.42,1.41,1.41,0,0,1,0-.43c0-.32.08-.73.13-1.24.12-1.07.33-2.61.63-4.52a134.25,134.25,0,0,1,8.05-29c.72-1.79,1.34-3.22,1.79-4.2l.53-1.12A1.46,1.46,0,0,1,386.75,286.78Z" style="fill:#263238"></path><path d="M371.22,347.38c-8.8-4.86-14-14-14.47-24.05-.34-7,1.82-13.91,4.26-20.5a2.71,2.71,0,0,1,1-1.49,2.52,2.52,0,0,1,2.4.38c6.39,3.64,10.27,10.58,12.33,17.64a35.73,35.73,0,0,1,1.45,14.51,24.11,24.11,0,0,1-7,13.51" style="fill:#455a64"></path><path d="M371.22,347.38a2.37,2.37,0,0,1,0-.42c0-.32,0-.73,0-1.22,0-1.05,0-2.58-.13-4.46a122.12,122.12,0,0,0-1.63-14.61c-1-5.67-2.16-10.74-3-14.41-.43-1.79-.79-3.26-1.05-4.34l-.27-1.18a3.43,3.43,0,0,1-.07-.42s.07.13.15.4l.34,1.16c.29,1,.69,2.49,1.16,4.32.94,3.65,2.17,8.72,3.15,14.4a107.86,107.86,0,0,1,1.53,14.67c.05,1.89.05,3.42,0,4.47,0,.5,0,.9-.05,1.22A1.37,1.37,0,0,1,371.22,347.38Z" style="fill:#263238"></path><g style="opacity:0.30000000000000004"><path d="M371.22,347.38c-8.8-4.86-14-14-14.47-24.05-.34-7,1.82-13.91,4.26-20.5a2.71,2.71,0,0,1,1-1.49,2.52,2.52,0,0,1,2.4.38c6.39,3.64,10.27,10.58,12.33,17.64a35.73,35.73,0,0,1,1.45,14.51,24.11,24.11,0,0,1-7,13.51"></path></g><path d="M381.15,400.81c8.66,1.9,15.79,8,24.15,11,5.53,2,11.78,2.66,16.19,6.53-1.06-2.68-3.57-4.46-6-6a107.72,107.72,0,0,0-21.88-10.45c-3.93-1.36-8.2-2.49-12.21-1.37" style="fill:#455a64"></path><path d="M368.63,408.52c-10.85-.17-22.27-9.4-33.06-10,11.29-3.64,27.47-.66,33.06,10" style="fill:#455a64"></path><path d="M372.87,382.51c5.5-2,11.55-2.08,17.34-1.18a104.44,104.44,0,0,1,16.93,4.6c-.56-3.77-3.61-6.6-6.47-9.1a45.72,45.72,0,0,0-6.8-5.23,15.17,15.17,0,0,0-8.15-2.3,12.91,12.91,0,0,0-9,4.54,14.92,14.92,0,0,0-3.85,8.67" style="fill:#455a64"></path><path d="M350.61,370.53c-6.83-5.83-17.17-5.26-26.15-5.06A212.82,212.82,0,0,1,365,390.74C365.37,384.39,359.23,377.89,350.61,370.53Z" style="fill:#455a64"></path><g style="opacity:0.30000000000000004"><path d="M350.61,370.53c-6.83-5.83-17.17-5.26-26.15-5.06A212.82,212.82,0,0,1,365,390.74C365.37,384.39,359.23,377.89,350.61,370.53Z"></path></g><path d="M375.94,362.48a75,75,0,0,1,10.5-6.1c3.59-1.63,6.94-4.23,10.42-6.11,4.5-2.44,8.4-5.83,12.53-8.85s8.67-5.75,13.72-6.55a27,27,0,0,0-12.49.72,80.3,80.3,0,0,0-11.75,4.58c-5.33,2.4-10.75,4.85-15.1,8.75s-8.29,7.74-7.83,13.56" style="fill:#455a64"></path><path d="M405.1,408.52s-.12,0-.34-.14l-.95-.49c-.82-.44-2-1.08-3.47-1.83-.73-.38-1.54-.78-2.42-1.2s-1.81-.85-2.81-1.29a42.1,42.1,0,0,0-6.68-2.33,14.47,14.47,0,0,0-7-.17,20.52,20.52,0,0,0-3,.88,15.11,15.11,0,0,0-2.38,1.22,15.33,15.33,0,0,0-3,2.47c-.63.68-.93,1.09-1,1.07a1.39,1.39,0,0,1,.2-.32,8.49,8.49,0,0,1,.65-.85,14,14,0,0,1,3-2.6,15.37,15.37,0,0,1,2.4-1.29,20.55,20.55,0,0,1,3-.93,14.53,14.53,0,0,1,7.13.15,39.52,39.52,0,0,1,6.73,2.38c1,.44,1.95.88,2.81,1.33s1.69.84,2.41,1.24c1.47.78,2.62,1.46,3.41,1.93l.92.56A1.54,1.54,0,0,1,405.1,408.52Z" style="fill:#263238"></path><path d="M360.54,403.15a2.39,2.39,0,0,1,.68.2,12.78,12.78,0,0,1,1.76.77,21.38,21.38,0,0,1,9.07,8.7,17,17,0,0,1,.84,1.74,2.45,2.45,0,0,1,.22.67c-.06,0-.47-.89-1.3-2.27a24,24,0,0,0-8.95-8.6C361.45,403.58,360.51,403.21,360.54,403.15Z" style="fill:#263238"></path><path d="M336.54,370l.46.14,1.3.46,2.06.76c.8.3,1.67.74,2.65,1.17a62.74,62.74,0,0,1,14.12,9,68.68,68.68,0,0,1,6.58,6.48,72.65,72.65,0,0,1,4.68,5.92c1.24,1.76,2.18,3.22,2.82,4.23l.74,1.16a2.18,2.18,0,0,1,.24.42,2.39,2.39,0,0,1-.3-.37c-.19-.25-.47-.63-.81-1.13-.68-1-1.65-2.42-2.91-4.15s-2.85-3.72-4.72-5.84a72,72,0,0,0-6.57-6.43,66.33,66.33,0,0,0-14-9c-1-.45-1.83-.9-2.62-1.22l-2-.81-1.27-.54A1.79,1.79,0,0,1,336.54,370Z" style="fill:#263238"></path><path d="M389.14,376.41a4.79,4.79,0,0,1-.86-.11l-1-.19c-.39-.07-.84-.07-1.33-.12a13.49,13.49,0,0,0-10.85,4,16.23,16.23,0,0,0-2.18,2.7,22.9,22.9,0,0,0-1.49,2.84,3.26,3.26,0,0,1,.22-.84,12.19,12.19,0,0,1,1-2.15,14.19,14.19,0,0,1,2.16-2.8,13.17,13.17,0,0,1,11.12-4c.5.07,1,.09,1.35.19l1,.25A3.28,3.28,0,0,1,389.14,376.41Z" style="fill:#263238"></path><path d="M400,342.59a1.84,1.84,0,0,1-.41.25l-1.21.66c-1.05.57-2.56,1.4-4.4,2.49s-4,2.45-6.29,4.09a52.2,52.2,0,0,0-7,5.87,17.83,17.83,0,0,0-2.87,3.72c-.71,1.36-1.39,2.68-2,3.95a73.32,73.32,0,0,0-3,6.86,42.66,42.66,0,0,0-1.47,4.83c-.27,1.16-.37,1.81-.41,1.81a1.74,1.74,0,0,1,0-.48c0-.31.11-.78.23-1.36a35.23,35.23,0,0,1,1.35-4.89,66.33,66.33,0,0,1,2.95-6.93c.62-1.27,1.29-2.6,2-4a18.2,18.2,0,0,1,2.93-3.81,50,50,0,0,1,7.09-5.89c2.31-1.64,4.49-3,6.35-4s3.4-1.86,4.47-2.38l1.25-.6A2.43,2.43,0,0,1,400,342.59Z" style="fill:#263238"></path><path d="M369.63,375.43a4.2,4.2,0,0,1-.22-.91c-.12-.67-.28-1.51-.47-2.51a63.84,63.84,0,0,0-5.15-15.94c-.42-.93-.77-1.7-1.06-2.32a5.13,5.13,0,0,1-.35-.88,4.08,4.08,0,0,1,.49.81c.29.53.69,1.3,1.17,2.27a53.36,53.36,0,0,1,5.17,16c.17,1.07.29,1.93.35,2.53A5,5,0,0,1,369.63,375.43Z" style="fill:#263238"></path><path d="M368.84,350.75A29.42,29.42,0,0,0,365.32,339a38.65,38.65,0,0,0-26.2-19.53l24.25,36.15,3.14,6.45C368.64,358.61,369.12,354.85,368.84,350.75Z" style="fill:#455a64"></path><rect x="347.23" y="422" width="56.4" height="10" style="fill:#FFD095"></rect><polygon points="351.45 430.02 356.25 461.04 393.69 461.04 399.43 430.02 351.45 430.02" style="fill:#FFD095"></polygon><path d="M403.61,432c0,.11-12.73.2-28.42.2s-28.41-.09-28.41-.2,12.72-.19,28.41-.19S403.61,431.9,403.61,432Z" style="fill:#263238"></path></g><g id="freepik--Picture--inject-8"><rect x="313.22" y="50.43" width="123.55" height="165.57" style="fill:#7c4235"></rect><path d="M436.78,50.43a3.18,3.18,0,0,1-.34.44l-1.06,1.24-4.17,4.75,0,.06h-.08c-10.74.11-31.85.19-56.08.19s-45.34-.08-56.08-.19h-.08l0-.06-4.17-4.75-1.06-1.24a2.39,2.39,0,0,1-.34-.44,2.82,2.82,0,0,1,.41.38L314.75,52l4.3,4.63-.13,0c10.74-.12,31.85-.2,56.08-.2s45.34.08,56.08.2l-.13,0,4.3-4.63,1.12-1.17A2.82,2.82,0,0,1,436.78,50.43Z" style="fill:#263238"></path><path d="M313.22,216a2.61,2.61,0,0,1,.34-.45l1.06-1.24,4.17-4.74,0-.06h.08c10.74-.11,31.85-.19,56.08-.19s45.34.08,56.08.19h.08l0,.06,4.17,4.74,1.06,1.24a3.56,3.56,0,0,1,.34.45,2.82,2.82,0,0,1-.41-.38l-1.12-1.18-4.3-4.63.13.06c-10.74.11-31.85.19-56.08.19s-45.34-.08-56.08-.19l.13-.06-4.3,4.63-1.12,1.18A2.82,2.82,0,0,1,313.22,216Z" style="fill:#263238"></path><rect x="318.92" y="56.74" width="112.16" height="152.95" style="fill:#fff"></rect><circle cx="375" cy="119.22" r="24.51" transform="translate(-8.9 205.58) rotate(-30.31)" style="fill:#e0e0e0"></circle><path d="M350.12,70.48c-3.12-5.64,59.31,107,59.5,107.42l-4,.29L346.05,72.49Z" style="fill:#455a64"></path><polygon points="344.63 178.6 377.84 143.72 411.04 178.6 344.63 178.6" style="fill:#FFD095"></polygon></g><g id="freepik--hairdryer-2--inject-8"><rect x="512.96" y="214.14" width="9.69" height="228.89" style="fill:#455a64"></rect><rect x="510.32" y="134.25" width="14.96" height="144.95" rx="2.23" style="fill:#263238"></rect><path d="M619.29,147.91S585.84,76.1,535.76,98c0,0-32.08,12.88-24.29,50,7.07,33.58,17.25,50,17.25,50Z" style="fill:#455a64"></path><path d="M561.93,94.32s29.18,10.81,43.61,44l-22-1.59s-12.69-35.07-35.73-42.34A47.27,47.27,0,0,1,561.93,94.32Z" style="fill:#fff;opacity:0.30000000000000004"></path><path d="M538.5,96.85s22,10.78,30.15,45.05l6.16-2.22S563,103.6,541.9,95.72C540.79,95.3,538.5,96.85,538.5,96.85Z" style="fill:#fff;opacity:0.30000000000000004"></path><ellipse cx="573.68" cy="172.47" rx="51.97" ry="31.96" transform="translate(-19.68 254.8) rotate(-24.63)" style="fill:#263238"></ellipse><ellipse cx="573.69" cy="172.46" rx="45.28" ry="27.85" transform="translate(-19.68 254.8) rotate(-24.63)" style="fill:#455a64"></ellipse><path d="M561.75,147.15c-18.55,8.5-30.77,23.24-31.15,36,9.51,9,29.43,9.7,48.72.86,18.54-8.5,30.76-23.24,31.15-36C601,139.05,581,138.31,561.75,147.15Z" style="opacity:0.30000000000000004"></path><rect x="504.83" y="264.81" width="6.6" height="6.6" style="fill:#263238"></rect><path d="M558.09,452.45H469.37a9.42,9.42,0,0,1,9.42-9.42h69.88a9.42,9.42,0,0,1,9.42,9.42Z" style="fill:#455a64"></path><path d="M486.05,453.41a7.17,7.17,0,1,1-7.17-7.17A7.17,7.17,0,0,1,486.05,453.41Z" style="fill:#263238"></path><path d="M524.62,453.87a7.17,7.17,0,1,1-7.17-7.17A7.17,7.17,0,0,1,524.62,453.87Z" style="fill:#263238"></path><path d="M558.2,453.87A7.17,7.17,0,1,1,551,446.7,7.17,7.17,0,0,1,558.2,453.87Z" style="fill:#263238"></path></g><g id="freepik--hairdryer-1--inject-8"><rect x="101.99" y="214.47" width="9.69" height="228.89" style="fill:#455a64"></rect><rect x="99.36" y="134.58" width="14.96" height="144.95" rx="2.23" style="fill:#263238"></rect><path d="M208.32,148.24s-33.44-71.81-83.53-49.95c0,0-32.08,12.87-24.28,50,7.06,33.58,17.25,50,17.25,50Z" style="fill:#455a64"></path><path d="M151,94.64s29.18,10.82,43.62,44L172.52,137S159.83,102,136.8,94.7A47.2,47.2,0,0,1,151,94.64Z" style="fill:#fff;opacity:0.30000000000000004"></path><path d="M127.54,97.18s22,10.78,30.14,45l6.17-2.22S152,103.93,130.93,96C129.82,95.63,127.54,97.18,127.54,97.18Z" style="fill:#fff;opacity:0.30000000000000004"></path><ellipse cx="162.71" cy="172.8" rx="51.97" ry="31.96" transform="translate(-57.21 83.54) rotate(-24.63)" style="fill:#263238"></ellipse><ellipse cx="162.73" cy="172.79" rx="45.28" ry="27.85" transform="translate(-57.21 83.55) rotate(-24.63)" style="fill:#455a64"></ellipse><path d="M150.78,147.48c-18.55,8.5-30.76,23.24-31.15,36,9.51,9,29.43,9.7,48.72.86,18.55-8.51,30.76-23.24,31.15-36C190,139.37,170.07,138.63,150.78,147.48Z" style="opacity:0.30000000000000004"></path><rect x="93.86" y="265.14" width="6.6" height="6.6" style="fill:#263238"></rect><path d="M147.12,452.78H58.4a9.43,9.43,0,0,1,9.43-9.43H137.7a9.43,9.43,0,0,1,9.42,9.43Z" style="fill:#455a64"></path><circle cx="67.92" cy="453.74" r="7.17" style="fill:#263238"></circle><path d="M113.66,454.19a7.18,7.18,0,1,1-7.18-7.17A7.18,7.18,0,0,1,113.66,454.19Z" style="fill:#263238"></path><path d="M147.23,454.19a7.17,7.17,0,1,1-7.17-7.17A7.17,7.17,0,0,1,147.23,454.19Z" style="fill:#263238"></path></g><g id="freepik--character-2--inject-8"><polygon points="484.36 419.91 484.82 461.32 492.65 461.32 501.12 419.91 484.36 419.91" style="fill:#bf614b"></polygon><polygon points="667.77 419.63 668.02 461.04 660.19 461.04 651.01 419.63 667.77 419.63" style="fill:#bf614b"></polygon><rect x="497.77" y="267.58" width="158.39" height="138.32" rx="11.24" style="fill:#455a64"></rect><rect x="472.43" y="390.92" width="207.26" height="45.07" style="fill:#455a64"></rect><rect x="503.59" y="359.63" width="144.79" height="33.92" rx="7.03" style="fill:#455a64"></rect><rect x="472.43" y="325.12" width="31.17" height="69.03" rx="3.37" style="fill:#455a64"></rect><rect x="648.53" y="325.12" width="31.17" height="69.03" rx="3.37" style="fill:#455a64"></rect><path d="M648.53,393.56c0,.14-32.31.26-72.15.26s-72.15-.12-72.15-.26,32.29-.26,72.15-.26S648.53,393.41,648.53,393.56Z" style="fill:#263238"></path><path d="M474.74,325.28l.36,0,1,0,4-.05,14.72-.08h2.39a18.06,18.06,0,0,1,2.52.08,4.51,4.51,0,0,1,3.64,3.71c.11,3.71,0,7.58.08,11.7,0,8.22,0,17.25,0,26.73,0,19-.06,36.11-.08,48.57,0,6.19-.06,11.21-.08,14.72,0,1.71,0,3-.05,4,0,.43,0,.78,0,1s0,.35,0,.35a1.6,1.6,0,0,1,0-.35c0-.26,0-.61,0-1,0-1,0-2.29-.05-4,0-3.51,0-8.53-.08-14.72,0-12.46-.05-29.61-.08-48.57,0-9.48,0-18.51,0-26.73,0-4.1.05-8.05,0-11.64a4.09,4.09,0,0,0-3.3-3.37,16.49,16.49,0,0,0-2.44-.09h-2.39l-14.72-.08-4-.05-1,0A1.65,1.65,0,0,1,474.74,325.28Z" style="fill:#263238"></path><path d="M677.73,325.12l-.36,0-1,0-4,.05-14.78.08h-2.4a16.82,16.82,0,0,0-2.46.1,4.86,4.86,0,0,0-3.69,3.15,8.23,8.23,0,0,0-.23,2.7c0,.95,0,1.92,0,2.89q0,2.94,0,6c0,8.25,0,17.32,0,26.84,0,19-.06,36.27-.08,48.78,0,6.21-.06,11.25-.08,14.77,0,1.73,0,3.07,0,4q0,.66,0,1.05c0,.23,0,.35,0,.35a1.6,1.6,0,0,1,0-.35q0-.39,0-1.05c0-.95,0-2.29-.05-4,0-3.52,0-8.56-.08-14.77,0-12.51,0-29.74-.07-48.78,0-9.52,0-18.59,0-26.84q0-3.09,0-6v-2.89a8.87,8.87,0,0,1,.27-2.84,5.27,5.27,0,0,1,4-3.4,14.55,14.55,0,0,1,2.53-.09h2.4l14.78.08,4,.05,1,0Z" style="fill:#263238"></path><path d="M647.84,359.72c0,.14-32.15.26-71.81.26s-71.8-.12-71.8-.26,32.14-.26,71.8-.26S647.84,359.58,647.84,359.72Z" style="fill:#263238"></path><path d="M532.08,321.75s-6.4-4.54-8.74-9.48c-2.93-6.2-2.52-14-2.52-14s-.92-25.09,0-36.53,2.57-23.39,14.69-26.12l5.33,17.41-.78,53-2,13.38Z" style="fill:#FFD095"></path><path d="M562.28,229.19l-26.77,6.47,2.36,40.07s-2.67,14.52-2.36,15.07,3.69,27.39,3.69,27.39L603,322.84s5-43.82,5-44.5-1-13.36-.81-19.16-6.34-20.36-6.34-20.36l-19.46-6.52Z" style="fill:#FFD095"></path><path d="M538,260.83a2.05,2.05,0,0,1,.06.56c0,.38.07.93.08,1.63,0,1.42,0,3.47-.06,6-.17,5.06-.75,12-1,19.73a55.28,55.28,0,0,0,.54,10.81c.48,3.3.91,6.27,1.27,8.79s.61,4.47.81,5.94c.08.65.14,1.19.2,1.62a2.72,2.72,0,0,1,0,.57,2.08,2.08,0,0,1-.14-.56c-.07-.42-.17-.95-.29-1.6l-1-5.91-1.39-8.78a53.73,53.73,0,0,1-.58-10.89c.22-7.73.86-14.69,1.12-19.74.14-2.52.2-4.56.23-6,0-.66,0-1.19,0-1.62A2.25,2.25,0,0,1,538,260.83Z" style="fill:#263238"></path><path d="M600.9,238.82s9.76,4.44,11.23,14.52,1.06,49.24,1.06,49.24,14,9.22,14.14,9.73,0,9.61,0,9.61-23.14-1.41-25.34-4.15-5.14-15.36-5.14-15.36Z" style="fill:#FFD095"></path><path d="M625,312.43s4.65-3.32,6.39-2.93a6.53,6.53,0,0,1,3.07,1.93,31.37,31.37,0,0,1,6.9.22c2.82.54,3.4,1.15,3.4,2.39a17.38,17.38,0,0,1-1,3.94l-2.9.86-1.41,1.31s.91,3-1.42,3.63c0,0,.17,3-1.82,3s-6.81-.7-6.81-1.85,1.24-1.22,1.24-1.22-1.73,0-.07-.88l-5.25-.71Z" style="fill:#ffbf9d"></path><path d="M628.53,313l-10.62-7.32-6.18,15s13.5,2,15.6,1.18S628.53,313,628.53,313Z" style="fill:#ffbf9d"></path><path d="M639.51,397.39l13.23,24.83L669,438.93a2.8,2.8,0,0,1-.26,4.17h0a3,3,0,0,1-2.64.56c-5.88-1.54-27.22-7.71-28-9-1.31-2-16.05-25.5-16.05-25.5Z" style="fill:#263238"></path><path d="M668.78,443.1l-31.92-10.29.59,1a4.68,4.68,0,0,0,2.3,2c2.64,1,10,3.53,26.31,7.89a3,3,0,0,0,2.72-.6Z" style="fill:#455a64"></path><path d="M657,435.45a8.5,8.5,0,0,1,1.15-3.08,8.62,8.62,0,0,1,2.6-2.08c0-.08-.44-.1-1.08.14a4.51,4.51,0,0,0-2,1.59,4.32,4.32,0,0,0-.85,2.4C656.72,435.08,656.89,435.46,657,435.45Z" style="fill:#fff"></path><path d="M660.61,437.78c.18,0,.55-1.18,1.65-2.24s2.34-1.44,2.29-1.62-1.5,0-2.74,1.19S660.44,437.78,660.61,437.78Z" style="fill:#fff"></path><path d="M651.24,433c.18.05.73-1.84,2.3-3.63s3.36-2.67,3.27-2.83-2.1.5-3.76,2.44S651.08,433,651.24,433Z" style="fill:#fff"></path><path d="M646.57,425.8c.15.11,1.23-1.2,3-2.22S653,422.21,653,422s-1.86-.1-3.76,1S646.42,425.73,646.57,425.8Z" style="fill:#fff"></path><path d="M594.05,434l-2.23,28,4.73,22.86a2.81,2.81,0,0,1-2.48,3.37h0a3,3,0,0,1-2.52-.95c-4.12-4.47-18.77-21.16-18.78-22.67,0-2.39.22-30.14.22-30.14Z" style="fill:#263238"></path><path d="M594.07,488.24l-21.33-25.87-.07,1.19a4.65,4.65,0,0,0,.88,2.9c1.7,2.24,6.51,8.35,17.91,20.82a3,3,0,0,0,2.61,1Z" style="fill:#455a64"></path><path d="M588.24,475.43c.16.09.89-1.33,2.63-2s3.27-.18,3.32-.35-.33-.32-1-.46a4.61,4.61,0,0,0-2.58.23,4.41,4.41,0,0,0-2,1.57C588.24,475,588.17,475.4,588.24,475.43Z" style="fill:#fff"></path><path d="M590.06,479.36a22.11,22.11,0,0,1,2.6-1,24,24,0,0,1,2.8-.13c.09-.14-1.25-.84-3-.48S589.92,479.27,590.06,479.36Z" style="fill:#fff"></path><path d="M584.73,470.3c.13.14,1.61-1.16,3.89-1.82s4.27-.44,4.29-.62-2-.71-4.48,0S584.6,470.21,584.73,470.3Z" style="fill:#fff"></path><path d="M584.69,461.7c.07.17,1.68-.35,3.73-.25s3.65.71,3.72.54-1.5-1.08-3.71-1.16S584.61,461.56,584.69,461.7Z" style="fill:#fff"></path><path d="M619.32,339.61c-3.1-8.12-6.23-16.66-13.86-18.83s-38-1.53-38-1.53l-33.35-4.44-6.49,20.31a29.12,29.12,0,0,0-1.16,5.11,25.21,25.21,0,0,0,4.91,19.29h42.85l17.61-13.43s8.47,27.27,11.36,36.49,30.23,45.56,30.23,45.56l17.68-10.55S622.41,347.73,619.32,339.61Z" style="fill:#263238"></path><path d="M586.26,346.86c-.83.19-10.16.57-10.25,10.18s5.7,10.37,4.26,16.13-8.8,23.76-9.83,40.09.95,39.41.95,39.41l21.9.95,14.87-69.5s5-22.47,0-29.39S586.26,346.86,586.26,346.86Z" style="fill:#263238"></path><path d="M611.24,395.42a3.93,3.93,0,0,1-.45-.6c-.29-.41-.71-1-1.22-1.81-1-1.57-2.48-3.9-4.12-6.85a119.91,119.91,0,0,1-10.17-24.31c-.35-1.24-.7-2.47-1-3.68a30.22,30.22,0,0,1-.9-3.61c-.2-1.2-.35-2.38-.63-3.49a5.76,5.76,0,0,0-1.46-2.9,4.21,4.21,0,0,0-2.84-1,10,10,0,0,0-2.95.5,16.43,16.43,0,0,0-4.81,2.5,14.33,14.33,0,0,0-4.56,6.33,26.16,26.16,0,0,0-.75,2.82,4.81,4.81,0,0,1,.06-.76,13.8,13.8,0,0,1,5-8.68,16.6,16.6,0,0,1,4.91-2.62,10,10,0,0,1,3.08-.54,4.58,4.58,0,0,1,3.17,1.09,6.21,6.21,0,0,1,1.61,3.12c.29,1.16.45,2.35.65,3.54a29.94,29.94,0,0,0,.9,3.56q.53,1.8,1,3.66a127.42,127.42,0,0,0,10,24.28c1.6,3,3,5.32,4,6.93.47.77.85,1.38,1.13,1.85A3.7,3.7,0,0,1,611.24,395.42Z" style="fill:#455a64"></path><path d="M548.13,334.42a2.67,2.67,0,0,1-3.06.58,3.16,3.16,0,0,1-3.61-.06,2.63,2.63,0,0,1-.73-3.28,2.88,2.88,0,0,1-2.6,1.16,5.52,5.52,0,0,1-2.78-1.06c-2.76-1.87-4.73-8.45-5.6-12.38l1.86-2.9L549,327.92Z" style="fill:#ffbf9d"></path><path d="M596.55,322.42a344.93,344.93,0,0,1,52.42-1.3c-.38-1.34.88-2.91,0-4.05a3.06,3.06,0,0,0-2.06-.91,71.77,71.77,0,0,0-14.73-.23q-18.54,1.11-36.91,3.92" style="fill:#e0e0e0"></path><path d="M550,339.61h2.91s4.15-6.05,8.49-9.15a50.59,50.59,0,0,1,9.91-5.3s-12.32,5.48-16.94,14.68h1.45A66.1,66.1,0,0,1,568,329c6.66-4.34,10.54-7.21,17.38-8S596,322.33,596,322.33l1-.52-6.13-5.33-11-.47-17,6.12-9,6L550,338.94" style="fill:#e0e0e0"></path><path d="M596.93,321.81c-5.72-3.68-10-3.74-10.75-3.68-3.86.31-12.08,1.44-18.87,5.37s-13.93,9.09-17.33,16.11l-20.23-25.47V312.2a14.67,14.67,0,0,1,8.47-5.39,33.35,33.35,0,0,1,10.22-.62,130.45,130.45,0,0,1,27.62,4.59l7.34,2.46c4.08.85,11.11,4.89,13.53,8.57Z" style="fill:#fafafa"></path><path d="M531.72,317.74a3.16,3.16,0,0,1,3,.2,11.08,11.08,0,0,1,2.27,2,6.19,6.19,0,0,0,2.48,1.74c.91.28,2,.25,2.64.94a1.75,1.75,0,0,1-.52,2.46,4.64,4.64,0,0,1-2.88.6,12.28,12.28,0,0,1-7.49-3.08" style="fill:#ffbf9d"></path><path d="M604.57,257.43a2.56,2.56,0,0,1,.09.62c0,.46.09,1.05.16,1.78s.13,1.72.15,2.82.1,2.36.07,3.74c0,2.78-.12,6.08-.35,9.74S604,283.8,603.55,288c-1,8.41-1.81,16-2.17,21.53-.18,2.76-.3,5-.34,6.55,0,.73-.06,1.32-.08,1.78a3.33,3.33,0,0,1-.06.62,2.29,2.29,0,0,1,0-.62c0-.46,0-1.06,0-1.79,0-1.55,0-3.79.17-6.56.27-5.54,1.06-13.17,2-21.57.46-4.19.87-8.2,1.17-11.84s.45-6.94.47-9.71c0-1.38,0-2.63,0-3.73s0-2.05-.07-2.82,0-1.32-.05-1.78A2.78,2.78,0,0,1,604.57,257.43Z" style="fill:#263238"></path><path d="M588.27,314.94a10.42,10.42,0,0,1-1.66-.05c-.54,0-1.19-.07-2-.06s-1.62,0-2.58.05-2,.1-3.1.25-2.3.34-3.54.56A48.7,48.7,0,0,0,567.6,318a48,48,0,0,0-7.28,3.75c-1.05.71-2.06,1.35-2.93,2.06s-1.7,1.34-2.42,2-1.34,1.23-1.89,1.75-1,1-1.36,1.39a9.48,9.48,0,0,1-1.17,1.19,10.7,10.7,0,0,1,1-1.32,18.19,18.19,0,0,1,1.3-1.46c.54-.55,1.12-1.2,1.85-1.83s1.5-1.35,2.4-2,1.89-1.39,2.94-2.11a42.36,42.36,0,0,1,15.29-6.16c1.26-.21,2.45-.43,3.58-.52s2.18-.17,3.14-.19,1.83,0,2.6,0a16.35,16.35,0,0,1,2,.15A9.76,9.76,0,0,1,588.27,314.94Z" style="fill:#263238"></path><path d="M584.13,313.62a9.21,9.21,0,0,1-1.56-.05c-1-.08-2.44-.12-4.22-.1-.89,0-1.86,0-2.9.14-.52.05-1.06.08-1.61.15l-1.7.24a39.9,39.9,0,0,0-7.37,2,37.73,37.73,0,0,0-6.78,3.48l-1.42,1c-.46.32-.87.66-1.29,1-.84.62-1.55,1.29-2.22,1.87-1.31,1.21-2.33,2.23-3,3a10.11,10.11,0,0,1-1.09,1.11,8.25,8.25,0,0,1,.94-1.24,31.86,31.86,0,0,1,2.89-3.11c.66-.61,1.36-1.31,2.2-1.95.42-.32.83-.68,1.29-1l1.42-1a34.46,34.46,0,0,1,14.34-5.52l1.72-.23c.56-.06,1.11-.08,1.64-.12,1.05-.1,2-.07,2.93-.08a36.6,36.6,0,0,1,4.24.27A8.75,8.75,0,0,1,584.13,313.62Z" style="fill:#263238"></path><path d="M549,322.84l-10.59-11s6.6-5.46,9.41-5.7,22.82,2,28.26,4.62C576.06,310.78,561.7,309,549,322.84Z" style="fill:#e0e0e0"></path><path d="M591.64,317s2-1.85,14-3.08S649,317.07,649,317.07l-52.88,4Z" style="fill:#fafafa"></path><path d="M634.25,311.42l4,1.38a3.75,3.75,0,0,1,1.37.68,1.32,1.32,0,0,1,.46,1.37,1.78,1.78,0,0,1-1.14.94,8.94,8.94,0,0,1-9.37-2" style="fill:#ffbf9d"></path><path d="M629.59,313.77a21.64,21.64,0,0,0,2.33,1.45,9.11,9.11,0,0,0,6.36.52,2.75,2.75,0,0,0,1.5-.81,1,1,0,0,0-.3-1.27,3.86,3.86,0,0,0-1.34-.68l-1.32-.49a14.88,14.88,0,0,1-2.57-1.07,14.42,14.42,0,0,1,2.69.72l1.34.43a4.23,4.23,0,0,1,1.52.73,1.72,1.72,0,0,1,.55.83,1.34,1.34,0,0,1-.14,1.08,3.17,3.17,0,0,1-1.78,1,8.92,8.92,0,0,1-6.67-.69,7.56,7.56,0,0,1-1.68-1.2C629.73,314,629.57,313.79,629.59,313.77Z" style="fill:#ff9a6c"></path><path d="M604.74,209.57l-10-2.84a7,7,0,0,1-4.83-8.67h0a7,7,0,0,1,8.67-4.83l10,2.84a7,7,0,0,1,4.82,8.67h0A7,7,0,0,1,604.74,209.57Z" style="fill:#e0e0e0"></path><path d="M604.74,209.57a9.54,9.54,0,0,0,2.52.13,7.15,7.15,0,0,0,2.77-.89,7.05,7.05,0,0,0,2.64-2.74,6.83,6.83,0,0,0-2.19-8.85,8,8,0,0,0-2.65-1.11l-3-.84-6.28-1.79a6.78,6.78,0,0,0-6.9,11.05,6.52,6.52,0,0,0,1.89,1.49,10.81,10.81,0,0,0,2.12.77l6.65,2,1.81.57a2.37,2.37,0,0,1,.61.23,4.43,4.43,0,0,1-.64-.13l-1.83-.47-6.7-1.82a11.66,11.66,0,0,1-2.21-.77A7.25,7.25,0,0,1,598.7,193l6.28,1.79,3,.86a8.44,8.44,0,0,1,2.79,1.19,7.21,7.21,0,0,1,2.25,9.42,7.21,7.21,0,0,1-2.83,2.82,7,7,0,0,1-2.9.84,6.6,6.6,0,0,1-1.89-.13A5.66,5.66,0,0,1,604.74,209.57Z" style="fill:#455a64"></path><path d="M612,204.61c-.88,2.62-3.21,4.21-5.19,3.54s-2.87-3.33-2-6S608,198,610,198.64,612.84,202,612,204.61Z" style="fill:#FFD095"></path><path d="M597.65,203a6.65,6.65,0,0,1,1.52-2.89,6.43,6.43,0,0,1,2.42-2.19,25.53,25.53,0,0,1-2,2.51A24.27,24.27,0,0,1,597.65,203Z" style="fill:#455a64"></path><path d="M607.75,195.91l-10-2.83a7,7,0,0,1-4.83-8.67h0a7,7,0,0,1,8.67-4.83l10,2.83a7,7,0,0,1,4.83,8.67h0A7,7,0,0,1,607.75,195.91Z" style="fill:#e0e0e0"></path><path d="M607.75,195.91a9.63,9.63,0,0,0,2.51.14,7.13,7.13,0,0,0,2.77-.9,6.94,6.94,0,0,0,2.65-2.74,6.86,6.86,0,0,0-2.19-8.85,8.22,8.22,0,0,0-2.66-1.11l-3-.84-6.28-1.78a6.83,6.83,0,0,0-6,1.13,6.74,6.74,0,0,0-2.65,5,6.84,6.84,0,0,0,1.71,4.9,7.18,7.18,0,0,0,1.89,1.49,11.5,11.5,0,0,0,2.12.77l6.66,2,1.8.56a2.86,2.86,0,0,1,.62.23,3,3,0,0,1-.65-.13l-1.83-.47-6.7-1.82a11,11,0,0,1-2.21-.77,7.25,7.25,0,0,1,5.34-13.39l6.28,1.79,3,.85a8.51,8.51,0,0,1,2.8,1.2,7.29,7.29,0,0,1,3,4.64,7.16,7.16,0,0,1-.77,4.77,7.06,7.06,0,0,1-5.72,3.67,7,7,0,0,1-1.9-.14A2.49,2.49,0,0,1,607.75,195.91Z" style="fill:#455a64"></path><path d="M615,191c-.88,2.63-3.21,4.21-5.19,3.55s-2.87-3.34-2-6S611,184.32,613,185,615.85,188.32,615,191Z" style="fill:#FFD095"></path><path d="M600.66,189.36a6.39,6.39,0,0,1,1.51-2.9,6.64,6.64,0,0,1,2.43-2.19,25.23,25.23,0,0,1-2,2.51A27.9,27.9,0,0,1,600.66,189.36Z" style="fill:#455a64"></path><path d="M605.07,181.77l-10-2.83a7,7,0,0,1-4.83-8.67h0a7,7,0,0,1,8.67-4.83l10,2.83a7,7,0,0,1,4.83,8.67h0A7,7,0,0,1,605.07,181.77Z" style="fill:#e0e0e0"></path><path d="M605.07,181.77a9.63,9.63,0,0,0,2.51.14,7.27,7.27,0,0,0,2.77-.89,7,7,0,0,0,2.65-2.75,6.85,6.85,0,0,0-2.19-8.84,7.8,7.8,0,0,0-2.66-1.11l-3-.85-6.28-1.78a6.79,6.79,0,0,0-8.62,6.16,6.88,6.88,0,0,0,1.72,4.89,7.18,7.18,0,0,0,1.89,1.49A11.5,11.5,0,0,0,596,179l6.66,2,1.8.56a5.37,5.37,0,0,1,.62.23,2.4,2.4,0,0,1-.65-.13l-1.83-.47-6.7-1.82a11.6,11.6,0,0,1-2.21-.76,7.25,7.25,0,0,1,5.34-13.4L605.3,167l3,.86a8.49,8.49,0,0,1,2.8,1.19,7.29,7.29,0,0,1,3,4.64,7.16,7.16,0,0,1-3.6,7.6,7.12,7.12,0,0,1-2.89.84,6.23,6.23,0,0,1-1.9-.14A2.49,2.49,0,0,1,605.07,181.77Z" style="fill:#455a64"></path><path d="M612.28,176.81c-.88,2.63-3.21,4.22-5.19,3.55s-2.87-3.34-2-6,3.21-4.22,5.19-3.55S613.17,174.19,612.28,176.81Z" style="fill:#FFD095"></path><path d="M598,175.22a9.27,9.27,0,0,1,3.93-5.08,26.15,26.15,0,0,1-2,2.5A27.9,27.9,0,0,1,598,175.22Z" style="fill:#455a64"></path><path d="M597.33,171.67l-10-2.83a7,7,0,0,1-4.83-8.68h0a7,7,0,0,1,8.67-4.82l10,2.83a7,7,0,0,1,4.83,8.67h0A7,7,0,0,1,597.33,171.67Z" style="fill:#e0e0e0"></path><path d="M597.33,171.67a9.43,9.43,0,0,0,2.51.13,6.91,6.91,0,0,0,5.42-3.63,6.83,6.83,0,0,0-2.19-8.85,7.92,7.92,0,0,0-2.66-1.11l-3-.84-6.28-1.78a6.78,6.78,0,0,0-6.89,11,7,7,0,0,0,1.88,1.49,11.59,11.59,0,0,0,2.13.77l6.65,2,1.8.56a2.59,2.59,0,0,1,.62.23,3.15,3.15,0,0,1-.65-.13l-1.82-.47-6.7-1.82a11,11,0,0,1-2.21-.77,7.12,7.12,0,0,1-2-1.56,7.25,7.25,0,0,1,7.36-11.83l6.27,1.79,3,.85a8.34,8.34,0,0,1,2.79,1.2,7.26,7.26,0,0,1,3,4.64,7.2,7.2,0,0,1-3.59,7.6,7.28,7.28,0,0,1-2.9.84,7,7,0,0,1-1.9-.14A3.5,3.5,0,0,1,597.33,171.67Z" style="fill:#455a64"></path><path d="M604.55,166.71c-.89,2.63-3.21,4.21-5.19,3.55s-2.88-3.34-2-6,3.21-4.21,5.19-3.54S605.43,164.08,604.55,166.71Z" style="fill:#FFD095"></path><path d="M590.24,165.11a9.35,9.35,0,0,1,3.94-5.08,24.23,24.23,0,0,1-2,2.51A23.07,23.07,0,0,1,590.24,165.11Z" style="fill:#fafafa"></path><path d="M560.75,171.85C567.69,166,576,163.39,585,164.9c5,.85,7,2.28,10.4,3.93a16.12,16.12,0,0,1,8,7.68c1.9,4.13,3.31,8.62,3,13.15a75.78,75.78,0,0,1-1.88,13.85,25.54,25.54,0,0,1-6.66,12.11l-12-.13c-6.47-1-13-2-19-4.59s-11.46-7.12-13.8-13.23C549.7,189.18,553.82,177.72,560.75,171.85Z" style="fill:#e0e0e0"></path><path d="M598,216c2.42-5.81,4.52-15.79,6-24,1.3-7.41-3.13-18.63-12.25-20.35l-4-1.22-16.66,3.3a4.39,4.39,0,0,0-4.87,3.41l-8.36,53.15-4.75,1.35,22.5,15.06L589.44,235l-7.53-2.53.69-5.71S593.17,227.64,598,216Z" style="fill:#ffbf9d"></path><path d="M580.31,209.74a2.65,2.65,0,0,1,1.19-1.43,2.7,2.7,0,0,1,3.25.41,3.61,3.61,0,0,1,.73,3.58h0a3.26,3.26,0,0,1-2.55.91l-.44-.07a3,3,0,0,1-1.81-1.13A2.63,2.63,0,0,1,580.31,209.74Z" style="fill:#ff9a6c"></path><path d="M596.82,201.18a1.61,1.61,0,0,1-1.89,1.21,1.52,1.52,0,0,1-1.26-1.79,1.6,1.6,0,0,1,1.88-1.21A1.53,1.53,0,0,1,596.82,201.18Z" style="fill:#263238"></path><path d="M600.47,195.54c-.24.15-1.21-1-2.89-1.41s-3.11.14-3.24-.11.21-.43.84-.69a4.41,4.41,0,0,1,2.66-.16,4.23,4.23,0,0,1,2.24,1.37C600.5,195.06,600.58,195.47,600.47,195.54Z" style="fill:#263238"></path><path d="M587.13,206.81A11.49,11.49,0,0,1,590,207c.44.06.86.07,1-.2a2.36,2.36,0,0,0,0-1.34q-.22-1.69-.48-3.57c-.63-5.07-1-9.19-.78-9.22s.89,4.07,1.52,9.14q.22,1.86.42,3.57a2.56,2.56,0,0,1-.19,1.74,1.1,1.1,0,0,1-.85.45,3.24,3.24,0,0,1-.75-.07A10.83,10.83,0,0,1,587.13,206.81Z" style="fill:#263238"></path><path d="M582.62,226.73a31.78,31.78,0,0,1-15.22-8.28s2.34,10,14.78,11.76Z" style="fill:#ff9a6c"></path><path d="M581.91,206.78c.28.05-.16,1.87,1.09,3.54s3.23,1.94,3.18,2.19-.52.25-1.34.08a4.72,4.72,0,0,1-2.69-1.73,4.1,4.1,0,0,1-.79-2.94C581.48,207.14,581.79,206.74,581.91,206.78Z" style="fill:#263238"></path><path d="M601,189.5c-.38.34-1.6-.25-3.13-.49s-2.87-.14-3.11-.59c-.11-.21.15-.57.77-.86a4.64,4.64,0,0,1,2.64-.27,4.53,4.53,0,0,1,2.39,1.14C601,188.9,601.16,189.33,601,189.5Z" style="fill:#e0e0e0"></path><path d="M579.22,198.36a1.6,1.6,0,0,0,1.19,1.89,1.53,1.53,0,0,0,1.91-1.09,1.6,1.6,0,0,0-1.19-1.89A1.54,1.54,0,0,0,579.22,198.36Z" style="fill:#263238"></path><path d="M577.66,190.65c.16.24,1.52-.4,3.21-.05s2.76,1.44,3,1.27,0-.48-.48-1a4.39,4.39,0,0,0-2.33-1.28,4.16,4.16,0,0,0-2.61.3C577.84,190.2,577.58,190.53,577.66,190.65Z" style="fill:#263238"></path><path d="M579.68,185.41c.26.45,1.64.31,3.22.61s2.84.85,3.23.51c.17-.17,0-.6-.47-1.08a5.18,5.18,0,0,0-5.19-.9C579.84,184.83,579.57,185.19,579.68,185.41Z" style="fill:#e0e0e0"></path><path d="M563,194.42l1.71,2.6c10.81-7.09,32.81-25.78,31.57-24.65a27.18,27.18,0,0,0-12.85-3.85c-7-.09-20.62.93-21.91,9S563,194.42,563,194.42Z" style="fill:#e0e0e0"></path><path d="M564.89,196.86c.22-.91-.31-3.29-1.17-3.65-2.3-1-6.65-1.8-8.15,4.25-2.06,8.27,6.67,8.63,6.74,8.4S564.14,200,564.89,196.86Z" style="fill:#ffbf9d"></path><path d="M561,202.74s-.17.06-.44.12a1.55,1.55,0,0,1-1.09-.25c-.79-.54-1.18-2.11-.85-3.61a4.81,4.81,0,0,1,.92-2,1.7,1.7,0,0,1,1.36-.84.76.76,0,0,1,.75.61c0,.26,0,.41,0,.43s.21-.09.23-.45a.92.92,0,0,0-.2-.6,1.11,1.11,0,0,0-.74-.41,2.08,2.08,0,0,0-1.82.91,5,5,0,0,0-1.08,2.18c-.36,1.68.1,3.45,1.21,4.1a1.64,1.64,0,0,0,1.38.11C560.9,202.94,561,202.76,561,202.74Z" style="fill:#ff9a6c"></path><path d="M561.8,189.74l-10-2.83a7,7,0,0,1-4.83-8.67h0a7,7,0,0,1,8.67-4.83l10,2.83a7,7,0,0,1,4.83,8.67h0A7,7,0,0,1,561.8,189.74Z" style="fill:#e0e0e0"></path><path d="M561.8,189.74a9.63,9.63,0,0,0,2.51.14,7.13,7.13,0,0,0,2.77-.9,6.94,6.94,0,0,0,2.65-2.74,6.83,6.83,0,0,0-2.19-8.85,8.13,8.13,0,0,0-2.66-1.11l-3-.84-6.28-1.78a6.78,6.78,0,0,0-6.89,11.05,7,7,0,0,0,1.88,1.49,11.5,11.5,0,0,0,2.12.77l6.66,2,1.8.56a2.86,2.86,0,0,1,.62.23,3,3,0,0,1-.65-.13l-1.83-.47-6.7-1.82a10.92,10.92,0,0,1-2.2-.77,7.25,7.25,0,0,1,5.34-13.39L562,175l3,.85a8.55,8.55,0,0,1,2.79,1.2,7.26,7.26,0,0,1,3,4.64,7.2,7.2,0,0,1-3.59,7.6,7.28,7.28,0,0,1-2.9.84,7,7,0,0,1-1.9-.14A2.49,2.49,0,0,1,561.8,189.74Z" style="fill:#455a64"></path><ellipse cx="565.43" cy="183.57" rx="5.02" ry="3.79" transform="translate(211 660.84) rotate(-71.39)" style="fill:#FFD095"></ellipse><path d="M554.71,183.19a6.39,6.39,0,0,1,1.51-2.9,6.72,6.72,0,0,1,2.43-2.19,24.23,24.23,0,0,1-2,2.51A26.91,26.91,0,0,1,554.71,183.19Z" style="fill:#fafafa"></path><path d="M583.2,170.31l-10-2.83a7,7,0,0,1-4.83-8.67h0a7,7,0,0,1,8.67-4.83l10,2.83a7,7,0,0,1,4.83,8.67h0A7,7,0,0,1,583.2,170.31Z" style="fill:#e0e0e0"></path><path d="M583.2,170.31a9.82,9.82,0,0,0,2.52.14,7.18,7.18,0,0,0,2.77-.9,6.92,6.92,0,0,0,2.64-2.74,6.81,6.81,0,0,0-2.19-8.84,8,8,0,0,0-2.65-1.12l-3-.84L577,154.23a6.78,6.78,0,0,0-8.62,6.15,6.89,6.89,0,0,0,1.72,4.9,7,7,0,0,0,1.89,1.49,11.5,11.5,0,0,0,2.12.77l6.65,2,1.81.56a2.37,2.37,0,0,1,.61.23,3.15,3.15,0,0,1-.64-.13l-1.83-.47-6.7-1.82a11.6,11.6,0,0,1-2.21-.76,7.46,7.46,0,0,1-2-1.56,7.25,7.25,0,0,1,7.36-11.84l6.28,1.79,3,.85a8.37,8.37,0,0,1,2.79,1.2,7.27,7.27,0,0,1,3,4.64,7.16,7.16,0,0,1-.77,4.77,7.05,7.05,0,0,1-5.73,3.67,6.9,6.9,0,0,1-1.89-.14A3,3,0,0,1,583.2,170.31Z" style="fill:#455a64"></path><path d="M590.42,165.35c-.88,2.63-3.21,4.22-5.19,3.55s-2.87-3.34-2-6,3.21-4.21,5.19-3.54S591.3,162.72,590.42,165.35Z" style="fill:#FFD095"></path><path d="M576.12,163.76a6.39,6.39,0,0,1,1.51-2.9,6.65,6.65,0,0,1,2.42-2.19,24.23,24.23,0,0,1-2,2.51A27.9,27.9,0,0,1,576.12,163.76Z" style="fill:#fafafa"></path><path d="M571.3,178.11l-9.95-2.83a7,7,0,0,1-4.83-8.67h0a7,7,0,0,1,8.67-4.83l10,2.83a7,7,0,0,1,4.83,8.67h0A7,7,0,0,1,571.3,178.11Z" style="fill:#e0e0e0"></path><path d="M571.3,178.11a9.75,9.75,0,0,0,2.52.14,7.18,7.18,0,0,0,2.77-.9,6.92,6.92,0,0,0,2.64-2.74,6.81,6.81,0,0,0-2.19-8.84,8,8,0,0,0-2.65-1.12l-3-.84L565.12,162a6.79,6.79,0,0,0-5,12.54,11.5,11.5,0,0,0,2.12.77l6.65,2,1.81.56a3,3,0,0,1,.61.23,3.15,3.15,0,0,1-.64-.13l-1.83-.47-6.7-1.82a11.6,11.6,0,0,1-2.21-.76,7.46,7.46,0,0,1-2-1.56,7.25,7.25,0,0,1,7.36-11.84l6.28,1.79,3,.86a8.15,8.15,0,0,1,2.79,1.19,7.27,7.27,0,0,1,3,4.64,7.2,7.2,0,0,1-.77,4.78,7.07,7.07,0,0,1-5.73,3.66,6.19,6.19,0,0,1-1.89-.14A3,3,0,0,1,571.3,178.11Z" style="fill:#455a64"></path><path d="M578.52,173.15c-.88,2.63-3.21,4.22-5.19,3.55s-2.87-3.34-2-6,3.21-4.21,5.19-3.54S579.4,170.53,578.52,173.15Z" style="fill:#FFD095"></path><path d="M564.22,171.56a9.18,9.18,0,0,1,3.93-5.08,26.15,26.15,0,0,1-2,2.5A27.9,27.9,0,0,1,564.22,171.56Z" style="fill:#fafafa"></path><path d="M591.54,167.36a2,2,0,0,1,.49.14,14.49,14.49,0,0,1,1.34.56,32.91,32.91,0,0,1,4.59,2.68,21.37,21.37,0,0,1,5.61,5.57,19.78,19.78,0,0,1,3.35,9.05,35.39,35.39,0,0,1-.33,9.68,55.57,55.57,0,0,1-1.92,7.65c-.68,2.14-1.32,3.84-1.76,5-.21.54-.39,1-.53,1.35a2.23,2.23,0,0,1-.22.45,1.58,1.58,0,0,1,.12-.49c.12-.37.26-.82.44-1.37.38-1.19,1-2.91,1.6-5,1.26-4.26,2.83-10.38,2.08-17.16a19.51,19.51,0,0,0-3.23-8.85,21.54,21.54,0,0,0-5.42-5.54,39,39,0,0,0-4.47-2.8C592.17,167.66,591.53,167.4,591.54,167.36Z" style="fill:#fff"></path><path d="M576.77,195.86c-.07.13-.79-.13-1.61-.58s-1.43-.91-1.36-1,.79.14,1.61.58S576.83,195.74,576.77,195.86Z" style="fill:#ff9a6c"></path><path d="M575.4,196.65c0,.14-.49.39-1.16.56s-1.25.18-1.29,0,.49-.38,1.16-.55S575.36,196.51,575.4,196.65Z" style="fill:#ff9a6c"></path><path d="M601.09,200.3c0,.13-.33.38-.84.54s-1,.19-1,0,.33-.38.84-.54S601.05,200.16,601.09,200.3Z" style="fill:#ff9a6c"></path><path d="M600.66,202.29c-.08.11-.38,0-.67-.16s-.44-.47-.36-.59.38,0,.67.16S600.75,202.17,600.66,202.29Z" style="fill:#ff9a6c"></path></g><g id="freepik--character-1--inject-8"><polygon points="86.27 419.63 86.72 461.04 94.55 461.04 103.02 419.63 86.27 419.63" style="fill:#bf614b"></polygon><polygon points="270.31 419.63 270.56 461.04 262.73 461.04 253.56 419.63 270.31 419.63" style="fill:#bf614b"></polygon><rect x="100.31" y="265.58" width="158.39" height="138.32" rx="9.72" style="fill:#455a64"></rect><rect x="74.97" y="388.92" width="207.26" height="45.08" style="fill:#455a64"></rect><rect x="106.13" y="357.64" width="144.79" height="33.92" rx="7.03" style="fill:#455a64"></rect><rect x="74.97" y="323.12" width="31.17" height="69.03" rx="3.37" style="fill:#455a64"></rect><rect x="251.07" y="323.12" width="31.17" height="69.03" rx="3.37" style="fill:#455a64"></rect><path d="M251.07,391.56c0,.14-32.31.26-72.15.26s-72.15-.12-72.15-.26,32.29-.26,72.15-.26S251.07,391.41,251.07,391.56Z" style="fill:#263238"></path><path d="M77.28,323.29a1.65,1.65,0,0,1,.36,0l1,0,4-.05,14.72-.08h2.39a18.06,18.06,0,0,1,2.52.08,4.52,4.52,0,0,1,3.64,3.71c.11,3.71,0,7.58.08,11.7,0,8.22,0,17.25,0,26.73,0,19-.06,36.11-.08,48.57,0,6.19-.06,11.21-.08,14.72,0,1.71,0,3,0,4,0,.44,0,.78,0,1a2.45,2.45,0,0,1,0,.36,1.65,1.65,0,0,1,0-.36c0-.26,0-.6,0-1,0-1,0-2.29,0-4,0-3.51,0-8.53-.08-14.72,0-12.46,0-29.61-.07-48.57,0-9.48,0-18.51,0-26.73,0-4.09,0-8.05,0-11.63a4.11,4.11,0,0,0-3.3-3.38,16.44,16.44,0,0,0-2.44-.09H97.4l-14.72-.08-4-.05-1,0Z" style="fill:#263238"></path><path d="M280.27,323.12l-.35,0-1.05,0-4,.05-14.78.09h-2.39a16.7,16.7,0,0,0-2.46.1,4.87,4.87,0,0,0-3.7,3.15,8.27,8.27,0,0,0-.23,2.71c0,.94,0,1.91,0,2.88q0,2.94,0,6c0,8.26,0,17.32,0,26.84,0,19-.06,36.27-.08,48.78,0,6.21-.06,11.25-.08,14.78,0,1.72,0,3.06,0,4q0,.66,0,1.05a2.63,2.63,0,0,1,0,.36,1.77,1.77,0,0,1,0-.36c0-.26,0-.61,0-1.05,0-.95,0-2.29,0-4,0-3.53-.05-8.57-.09-14.78,0-12.51,0-29.74-.07-48.78,0-9.52,0-18.58,0-26.84q0-3.09,0-6v-2.88a8.82,8.82,0,0,1,.27-2.84,5.26,5.26,0,0,1,4-3.41,15.69,15.69,0,0,1,2.54-.09h2.39l14.78.08,4,.05,1.05,0Z" style="fill:#263238"></path><path d="M250.38,357.72c0,.15-32.15.26-71.8.26s-71.81-.11-71.81-.26,32.14-.26,71.81-.26S250.38,357.58,250.38,357.72Z" style="fill:#263238"></path><path d="M148.75,168.9c5.18-7.48,12.56-12.13,21.61-13,5.1-.5,7.3.4,11.06,1.1a16.18,16.18,0,0,1,9.69,5.35c2.9,3.49,5.42,7.46,6.28,11.92a76.53,76.53,0,0,1,1.77,13.87,25.42,25.42,0,0,1-3.29,13.42l-11.64,3c-6.5.75-13.09,1.49-19.56.51s-12.92-3.9-16.76-9.2C142.57,188.51,143.57,176.37,148.75,168.9Z" style="fill:#263238"></path><path d="M196.2,201.83c.83-6.24.27-16.43-.47-24.74-.66-7.49-7.85-17.18-17.1-16.47l-4.15-.15L159.24,168a4.41,4.41,0,0,0-3.82,4.56L161.14,226,155,227.6l22,11.18,15.41-10-7.71-2.31-.59-10.24S194.53,214.38,196.2,201.83Z" style="fill:#e28d76"></path><path d="M177.47,200.42a2.6,2.6,0,0,1,.78-1.69,2.68,2.68,0,0,1,3.24-.45,3.61,3.61,0,0,1,1.63,3.27h0a3.3,3.3,0,0,1-2.23,1.54l-.44,0a2.91,2.91,0,0,1-2-.63A2.63,2.63,0,0,1,177.47,200.42Z" style="fill:#bf614b"></path><path d="M192.31,187.21a1.6,1.6,0,0,1-1.51,1.66,1.54,1.54,0,0,1-1.69-1.41,1.61,1.61,0,0,1,1.51-1.65A1.54,1.54,0,0,1,192.31,187.21Z" style="fill:#263238"></path><path d="M193.25,181.47c-.2.22-1.43-.65-3.16-.6s-3,.94-3.16.73.1-.47.64-.89a4.41,4.41,0,0,1,2.53-.84,4.23,4.23,0,0,1,2.51.74C193.15,181,193.34,181.38,193.25,181.47Z" style="fill:#263238"></path><path d="M183.29,195.82a11.64,11.64,0,0,1,2.79-.57c.44-.06.85-.16.92-.46a2.28,2.28,0,0,0-.33-1.3c-.44-1.05-.9-2.16-1.39-3.32-1.92-4.73-3.33-8.62-3.14-8.7s1.91,3.7,3.84,8.43c.46,1.17.91,2.28,1.33,3.34a2.54,2.54,0,0,1,.27,1.72,1.12,1.12,0,0,1-.71.67,3.23,3.23,0,0,1-.74.12A10.81,10.81,0,0,1,183.29,195.82Z" style="fill:#263238"></path><path d="M184.1,216.23a31.82,31.82,0,0,1-16.85-4s4.55,8.95,17,7.47Z" style="fill:#bf614b"></path><path d="M178.24,197.14c.28,0,.33,1.85,2,3.14s3.62,1,3.64,1.3c0,.11-.43.37-1.28.41a4.67,4.67,0,0,1-3-1,4.07,4.07,0,0,1-1.52-2.63C177.92,197.6,178.11,197.14,178.24,197.14Z" style="fill:#263238"></path><path d="M192.18,175.51c-.28.42-1.61.18-3.15.34s-2.8.61-3.15.24c-.16-.19,0-.6.52-1a4.73,4.73,0,0,1,2.48-.94,4.53,4.53,0,0,1,2.6.48C192.08,174.92,192.3,175.3,192.18,175.51Z" style="fill:#263238"></path><path d="M174.31,187.88A1.6,1.6,0,0,0,176,189.4a1.53,1.53,0,0,0,1.56-1.54,1.61,1.61,0,0,0-1.65-1.52A1.54,1.54,0,0,0,174.31,187.88Z" style="fill:#263238"></path><path d="M170,182.67c.21.19,1.37-.78,3.09-.88s3,.68,3.22.45-.15-.46-.72-.83a4.45,4.45,0,0,0-2.59-.62,4.17,4.17,0,0,0-2.44,1C170,182.19,169.85,182.58,170,182.67Z" style="fill:#263238"></path><path d="M170.55,177.08c.36.37,1.66-.12,3.26-.24s3,.08,3.25-.35c.13-.2-.11-.58-.73-.92a4.91,4.91,0,0,0-2.69-.47,4.84,4.84,0,0,0-2.56,1C170.54,176.49,170.38,176.9,170.55,177.08Z" style="fill:#263238"></path><path d="M156.81,190.11l2.33,2.06c8.59-9.65,25-33.4,24.09-32a27.06,27.06,0,0,0-13.41-.38C163,161.53,150.15,166,151,174.18S156.81,190.11,156.81,190.11Z" style="fill:#263238"></path><path d="M199.78,173.16c-.54-4.53-.76-6.38-2.54-10.59S192,154,188,151.83c-4.54-2.38-11.73-4.33-14.9-2.54,0,0-8.76-1.49-12.14.33-6.14,3.28-7.86,7.56-7.86,7.56s-5.48-1-8.62,3.29c-1.78,2.41-3.16,6.8-1.78,9.46a12.84,12.84,0,0,0-7.09,15.14c.73,2.35,3.43,5.73,3.43,5.73a33.11,33.11,0,0,0-.48,6.31,9.86,9.86,0,0,0,9.85,8.06c2.32,3.88,6.8,6.2,11,4.46l-.85-7.93-2.13-12.39a44.21,44.21,0,0,1,14.71-26c4.26-3.64,10.1-6.14,15.35-4.19,4,1.5,6.54,5,8.22,8.95,2.91,6.81,4,11.95,4.47,20.08C200.5,179.87,200.48,179.1,199.78,173.16Z" style="fill:#FFD095"></path><path d="M159.23,192c0-.93-1.16-3.1-2.08-3.22-2.46-.32-6.88,0-6.77,6.22.16,8.52,8.68,6.61,8.69,6.36S159.32,195.19,159.23,192Z" style="fill:#e28d76"></path><path d="M157,198.68s-.15.1-.4.22a1.5,1.5,0,0,1-1.11,0c-.9-.32-1.69-1.73-1.76-3.27a5,5,0,0,1,.38-2.13,1.7,1.7,0,0,1,1.1-1.16.75.75,0,0,1,.88.39c.12.23.07.41.11.42s.18-.15.11-.5a.93.93,0,0,0-.35-.53,1.12,1.12,0,0,0-.82-.2,2.1,2.1,0,0,0-1.53,1.35,5.14,5.14,0,0,0-.47,2.39c.09,1.71,1,3.31,2.23,3.64a1.64,1.64,0,0,0,1.36-.25C157,198.88,157,198.69,157,198.68Z" style="fill:#bf614b"></path><path d="M198.6,176a4.15,4.15,0,0,1-.16-.74c-.09-.49-.22-1.2-.45-2.11a28.61,28.61,0,0,0-2.93-7.33,27.26,27.26,0,0,0-3.17-4.42,16.09,16.09,0,0,0-4.87-3.81,13,13,0,0,0-6.66-1.16,20.35,20.35,0,0,0-7.08,1.93,27.64,27.64,0,0,0-10.9,9,38,38,0,0,0-5,10.57c-1,3.2-1.58,5.85-2,7.68-.2.88-.37,1.58-.49,2.11a3.43,3.43,0,0,1-.21.72,5.68,5.68,0,0,1,.1-.74c.1-.54.24-1.25.4-2.13.38-1.84.91-4.52,1.87-7.75A37.62,37.62,0,0,1,162,167.17a27.77,27.77,0,0,1,11.07-9.24,20.8,20.8,0,0,1,7.27-2,13.3,13.3,0,0,1,6.9,1.24,16.37,16.37,0,0,1,5,4,26.54,26.54,0,0,1,3.17,4.53,27.39,27.39,0,0,1,2.81,7.46c.19.93.3,1.65.36,2.14A4,4,0,0,1,198.6,176Z" style="fill:#263238"></path><path d="M147.11,193.22s-.33-.14-.8-.56a6.78,6.78,0,0,1-1.6-2.14,7,7,0,0,1-.66-3.92,7.45,7.45,0,0,1,2.14-4.36l0,0,.06.42a6.35,6.35,0,0,1-3-3.76,6,6,0,0,1,.2-4,6,6,0,0,1,1.51-2.19,2.36,2.36,0,0,1,.81-.55,8,8,0,0,0-2,2.87,5.75,5.75,0,0,0-.08,3.69,6,6,0,0,0,2.83,3.44l.31.16-.25.26,0,0a7.1,7.1,0,0,0-2,4,6.85,6.85,0,0,0,.51,3.71A9.53,9.53,0,0,0,147.11,193.22Z" style="fill:#263238"></path><path d="M200.24,279.44c.31.47,11.47,15.46,11.47,15.46l13.5-12.54-8.64-21.77-5.18-8.87Z" style="fill:#e28d76"></path><path d="M201.48,409s9.06,17.16,9.06,17.16L224,418.66,218.08,400Z" style="fill:#e28d76"></path><path d="M209,423.82s13.83.42,14.13-8.5l.74,1.8,20.66,13.58c3.29,2.33,3,5,2.16,6.38a3.13,3.13,0,0,1-3,1.45c-6.43-.82-30.05-3.95-31.24-5.86L211.18,431c-2-2.33-2.61-5.19-2-6.23Z" style="fill:#263238"></path><g style="opacity:0.6000000000000001"><path d="M246.34,437.54,211.18,431l.78,1.05c.73,1.2,1.55,1.29,2.63,1.62,3.17,1,11.13,2.55,29,4.91a3.12,3.12,0,0,0,2.77-1Z" style="fill:#fff"></path></g><g style="opacity:0.6000000000000001"><path d="M213.65,426.54a1.9,1.9,0,0,1,1.89,1.69,1.82,1.82,0,0,1-1.65,1.89,2,2,0,0,1-2-1.79c0-.94,1-2,1.94-1.78" style="fill:#fff"></path></g><path d="M229.92,429.31c.19,0-.21-1.74.74-3.52s2.52-2.46,2.43-2.64-.47,0-1.11.31a5,5,0,0,0-2.45,4.76C229.61,428.94,229.85,429.33,229.92,429.31Z" style="fill:#fff"></path><path d="M233.84,430.78c.2,0,.4-1.37,1.4-2.68s2.25-1.9,2.17-2.09-1.59.18-2.71,1.69S233.67,430.81,233.84,430.78Z" style="fill:#fff"></path><path d="M225.48,427.68a26.54,26.54,0,0,1,1.63-3.7c1.16-1.9,2.72-2.94,2.61-3.09a6.13,6.13,0,0,0-3.11,2.78A6,6,0,0,0,225.48,427.68Z" style="fill:#fff"></path><path d="M226,422.22s-.23-.36-.82-.82a7.93,7.93,0,0,0-2.84-1.4A3.54,3.54,0,0,0,220,420a1.26,1.26,0,0,0-.77,1.23,2,2,0,0,0,.68,1.3,4.43,4.43,0,0,0,5.65,0,5.14,5.14,0,0,0,1.49-5.53,1.8,1.8,0,0,0-1-1.08,1.23,1.23,0,0,0-1.36.5,4.39,4.39,0,0,0-.61,2.19,8.88,8.88,0,0,0,.31,3.15,2.78,2.78,0,0,0,.45,1.07,14.3,14.3,0,0,1-.29-4.17,4.18,4.18,0,0,1,.58-1.9.68.68,0,0,1,.74-.28,1.29,1.29,0,0,1,.64.75,4.59,4.59,0,0,1-1.35,4.78,3.85,3.85,0,0,1-4.8.1,1.52,1.52,0,0,1-.51-.89.7.7,0,0,1,.41-.68,3.21,3.21,0,0,1,1.94,0A12,12,0,0,1,226,422.22Z" style="fill:#fff"></path><path d="M161.12,431.84c.06,0,.16,21.19.16,21.19S176,455.33,176,455s4.34-20.62,4.34-20.62Z" style="fill:#e28d76"></path><path d="M177.16,449.07s-10.68,8-15.91.79l-.21,1.93-9.61,22.84c-1.43,3.77.29,5.85,1.77,6.51a3.14,3.14,0,0,0,3.35-.49c4.89-4.27,22.8-20.06,22.72-22.31l.1-2.07c.34-3-.72-5.78-1.85-6.28Z" style="fill:#263238"></path><g style="opacity:0.6000000000000001"><path d="M153.76,481.33l25.61-25.06-.06,1.3c.06,1.41-.58,1.94-1.28,2.82-2.1,2.59-7.84,8.33-21.39,20.26a3.11,3.11,0,0,1-2.88.68Z" style="fill:#fff"></path></g><g style="opacity:0.6000000000000001"><path d="M174.83,453.92a1.9,1.9,0,0,0-.64,2.46,1.82,1.82,0,0,0,2.43.65,2,2,0,0,0,.66-2.6,1.89,1.89,0,0,0-2.6-.4" style="fill:#fff"></path></g><path d="M162.82,465.31c-.17.08-.79-1.56-2.57-2.51s-3.47-.65-3.5-.84.38-.3,1.1-.37a5,5,0,0,1,4.7,2.6C162.87,464.83,162.9,465.29,162.82,465.31Z" style="fill:#fff"></path><path d="M160.38,468.72c-.15.13-1.09-.91-2.65-1.44s-2.94-.34-3-.53,1.43-.74,3.2-.11S160.55,468.65,160.38,468.72Z" style="fill:#fff"></path><path d="M165.61,461.48a26.82,26.82,0,0,0-3.42-2.18c-2-.93-3.9-.92-3.9-1.1a6.08,6.08,0,0,1,4.14.57C164.63,459.74,165.75,461.41,165.61,461.48Z" style="fill:#fff"></path><path d="M162.17,457.2a2.49,2.49,0,0,1,.22-1.14,8,8,0,0,1,1.58-2.75,3.6,3.6,0,0,1,1.88-1.32,1.28,1.28,0,0,1,1.33.6,2.06,2.06,0,0,1,.16,1.46,4.45,4.45,0,0,1-4.73,3.12,5.15,5.15,0,0,1-4.32-3.77,1.78,1.78,0,0,1,.25-1.47,1.23,1.23,0,0,1,1.41-.34,4.47,4.47,0,0,1,1.74,1.48,8.89,8.89,0,0,1,1.5,2.79,2.68,2.68,0,0,1,.22,1.14,14.54,14.54,0,0,0-2.09-3.63,4,4,0,0,0-1.54-1.25.65.65,0,0,0-.77.18,1.22,1.22,0,0,0-.11,1,4.59,4.59,0,0,0,3.78,3.22,3.86,3.86,0,0,0,4-2.59,1.48,1.48,0,0,0-.07-1,.69.69,0,0,0-.72-.34,3.21,3.21,0,0,0-1.61,1.09A11.7,11.7,0,0,0,162.17,457.2Z" style="fill:#fff"></path><path d="M139.51,230l21.11-8.12s5.32,9.19,14.69,8.39c9.6-.82,9-9.68,9-9.68l26.8,9.39s1.75,35.87,0,41.48-6.72,12.89-6.72,12.89,5.24,12.19,5.38,15.55-1.35,2.52-1.35,2.52l-64,.77Z" style="fill:#e0e0e0"></path><g style="opacity:0.30000000000000004"><path d="M195.8,266.71c-.81-.74-2.11-.25-3.08.28-5.52,3-11,6-16.27,9.42-6.61,4.35-12.71,9.42-19.17,14q-5.72,4-11.79,7.51l-1.38,2.39c1.46,2.37,4.47,3.45,7.25,3.23a17.27,17.27,0,0,0,7.69-3c10.86-6.88,18.51-18,29.38-24.89,2.69-1.7,5.68-3.25,7.31-6C196.28,268.73,196.59,267.42,195.8,266.71Z"></path></g><path d="M198.28,283.7a17.28,17.28,0,0,1-2.64.14c-1.63,0-3.87.12-6.34.31s-4.71.44-6.32.64a14.51,14.51,0,0,1-2.63.25,11.56,11.56,0,0,1,2.57-.62,64.6,64.6,0,0,1,12.72-.95A11.4,11.4,0,0,1,198.28,283.7Z" style="fill:#263238"></path><path d="M184.54,219.94q.38,23,.77,46a2.88,2.88,0,0,0,3.39,3.35,162,162,0,0,0,32.66-.15,102.9,102.9,0,0,0-5-29c-1.34-4.09-3-8.23-6.1-11.25-4.22-4.14-19.9-7.78-25.69-9" style="fill:#FFD095"></path><path d="M218.09,266a3.38,3.38,0,0,1-.69,0h-2l-7.33-.06-10.85-.15c-1,0-2.07,0-3.15-.08a7.71,7.71,0,0,1-3.26-.8,4.49,4.49,0,0,1-2.11-2.79,13.48,13.48,0,0,1-.39-3.52c-.15-9.41-.29-17.92-.39-24.15,0-3.05,0-5.53-.05-7.32,0-.83,0-1.49,0-2a3.45,3.45,0,0,1,0-.7,3.15,3.15,0,0,1,.06.69c0,.51.06,1.17.09,2,.06,1.79.13,4.28.22,7.32.14,6.23.33,14.74.54,24.15a13,13,0,0,0,.37,3.39,3.94,3.94,0,0,0,1.86,2.48,7.26,7.26,0,0,0,3,.76c1.06.07,2.11.06,3.13.09l10.85.27,7.32.22,2,.09A3.15,3.15,0,0,1,218.09,266Z" style="fill:#263238"></path><path d="M194.12,250.15a5.57,5.57,0,0,1-.44-2.33,5.44,5.44,0,0,1,.07-2.39,5.7,5.7,0,0,1,.44,2.34A5.37,5.37,0,0,1,194.12,250.15Z" style="fill:#263238"></path><path d="M195.81,249.59c-.14,0-.13-.89,0-1.93s.4-1.87.54-1.85.13.89,0,1.93S196,249.61,195.81,249.59Z" style="fill:#263238"></path><path d="M197.32,249.78a4.14,4.14,0,0,1,.42-2c.36-1,.77-1.85.91-1.8a4.14,4.14,0,0,1-.42,2C197.87,249,197.46,249.83,197.32,249.78Z" style="fill:#263238"></path><path d="M199.06,249.8c-.12-.07.07-.64.44-1.26s.76-1.08.88-1-.07.64-.43,1.27S199.19,249.87,199.06,249.8Z" style="fill:#263238"></path><path d="M204.83,261c-.12.08-.64-.5-1.15-1.28s-.84-1.49-.72-1.57.64.5,1.15,1.28S205,260.87,204.83,261Z" style="fill:#263238"></path><path d="M205.79,260.92c-.15,0-.35-.55-.46-1.28s-.07-1.34.07-1.36.34.55.45,1.28S205.93,260.9,205.79,260.92Z" style="fill:#263238"></path><path d="M207.29,260.53c-.15,0-.17-.59-.06-1.27s.31-1.2.45-1.18.17.59.06,1.27S207.43,260.56,207.29,260.53Z" style="fill:#263238"></path><path d="M208.44,241.86c-.12.08-.68-.57-1.26-1.46s-.94-1.66-.82-1.74.68.57,1.26,1.46S208.56,241.78,208.44,241.86Z" style="fill:#263238"></path><path d="M209.22,241.47c-.15,0-.26-.8-.26-1.79s.11-1.8.26-1.8.26.81.26,1.8S209.36,241.47,209.22,241.47Z" style="fill:#263238"></path><path d="M210.73,241.09c-.14,0-.17-.55-.07-1.17s.3-1.12.45-1.09.17.55.06,1.17S210.87,241.12,210.73,241.09Z" style="fill:#263238"></path><path d="M195.47,229.94c-.13.05-.54-.67-.91-1.6s-.55-1.74-.42-1.8.54.67.91,1.61S195.61,229.89,195.47,229.94Z" style="fill:#263238"></path><path d="M196.57,229.2c-.15,0-.26-.55-.26-1.23s.11-1.23.26-1.23.26.55.26,1.23S196.71,229.2,196.57,229.2Z" style="fill:#263238"></path><path d="M198.27,229.2c-.14,0-.13-.57,0-1.2s.39-1.1.53-1.07.13.57,0,1.2S198.41,229.23,198.27,229.2Z" style="fill:#263238"></path><path d="M129.9,273.4s5.91,16.68,8.53,20.93,3.74,9.73,12.13,7.5,12.65-7.71,21.82-15.23,15.09-13.2,15.09-13.2L181,265.58l-26.76,12.2-6.38-14Z" style="fill:#e28d76"></path><path d="M210.83,248.36l-18.4,9.7-15,9.58s7.47,6.62,9.58,6.46,5-3.08,5-3.08a2.19,2.19,0,0,0,1.24,1.19c.92.32,2-.76,2-.76a6.47,6.47,0,0,0,2,.43c.92,0,2-3.52,2.53-5.84a4.13,4.13,0,0,0-.37-3.45l.72-.41,1,1.77-1.57,5.61c-.83,3.08,2.15,2.66,2.15,2.66s3.27-5.69,3.6-8.92-2.9-5.3-2.9-5.3,6.8-5.85,8.48-7S210.83,248.36,210.83,248.36Z" style="fill:#e28d76"></path><path d="M152,290a5,5,0,0,1-.6-1.85,12.17,12.17,0,0,1,.08-4.68,12,12,0,0,1,1.84-4.31,4.66,4.66,0,0,1,1.3-1.43,18.42,18.42,0,0,0-2.63,5.85A18.8,18.8,0,0,0,152,290Z" style="fill:#bf614b"></path><path d="M140.59,229.53s-11.82,3.49-14.1,16c-1.36,7.43,1.93,31.57,1.93,31.57l22.84-8.5Z" style="fill:#e0e0e0"></path><path d="M144.44,246.11a24.84,24.84,0,0,1,.9,3.36c.54,2.23,1.21,5.05,2,8.17s1.52,6.06,2.09,8.13a30.93,30.93,0,0,1,.91,3.35,3.2,3.2,0,0,1-.4-.84c-.24-.56-.52-1.39-.86-2.41-.67-2.05-1.46-4.92-2.24-8.11s-1.41-6.09-1.82-8.21A21.42,21.42,0,0,1,144.44,246.11Z" style="fill:#263238"></path><path d="M145.13,303.14s-15.1,17.7-14.74,32a53.7,53.7,0,0,0,6.74,24.62l20,1.18s1.78-9.55,8.94-9.55c1.55,0,33,62.13,33,62.13l22.31-11.82s-18.89-56.18-23-66.56-8-15.39-13.47-16.87l-6.12-15.5Z" style="fill:#263238"></path><path d="M149.36,320.25c0,.09-.94-.17-2.46-.29a14.84,14.84,0,0,0-5.82.7,12.7,12.7,0,0,0-5,3c-1.07,1.07-1.57,1.89-1.66,1.84s.08-.24.3-.61a8.84,8.84,0,0,1,1.09-1.49,11.93,11.93,0,0,1,5.08-3.28,13.46,13.46,0,0,1,6-.56A6.8,6.8,0,0,1,149.36,320.25Z" style="fill:#455a64"></path><path d="M173.84,316.53a43.67,43.67,0,0,1-.27-6.86,43.67,43.67,0,0,1,.27-6.86,46,46,0,0,1,.26,6.86A46,46,0,0,1,173.84,316.53Z" style="fill:#455a64"></path><path d="M156.2,302.76a2.38,2.38,0,0,1-.26.8,12.42,12.42,0,0,1-1.11,2,15.17,15.17,0,0,1-12.94,6.78,13,13,0,0,1-2.29-.23,2.29,2.29,0,0,1-.8-.24c0-.09,1.18.15,3.09.11a16,16,0,0,0,12.64-6.63C155.65,303.82,156.12,302.72,156.2,302.76Z" style="fill:#455a64"></path><path d="M209,302.37A41.32,41.32,0,0,1,219.3,323c2.07,12.39,2.2,28.55-1.33,34.53l-10.1,2.27-8.89,9-15.22,69.86-25.47-2.16s-3.16-62.64-2.24-68.31,1.09-7.22,1.09-7.22-.63-9.34,6.12-16.09a166.81,166.81,0,0,1,16.4-13.8l-.88-28.28Z" style="fill:#263238"></path><path d="M215.23,312.1a3.8,3.8,0,0,1-.93.39,15,15,0,0,1-2.69.6,15.18,15.18,0,0,1-8.92-1.44,11.78,11.78,0,0,1-2.16-1.49c-.64-.54-1.25-1.08-1.8-1.61a38.87,38.87,0,0,1-2.77-3c-.74-.89-1.31-1.64-1.7-2.15a3.64,3.64,0,0,1-.56-.84,33,33,0,0,1,2.54,2.74c.78.86,1.71,1.86,2.82,2.9a20.47,20.47,0,0,0,3.87,3,15.78,15.78,0,0,0,8.64,1.54C213.85,312.52,215.2,312,215.23,312.1Z" style="fill:#455a64"></path><path d="M215.23,323.94c0,.08-1.15-.7-3.12-1.54a21.77,21.77,0,0,0-3.57-1.15,23.7,23.7,0,0,0-4.56-.52,23.14,23.14,0,0,0-4.56.47,20.08,20.08,0,0,0-3.58,1.1c-2,.82-3.09,1.58-3.15,1.5a3.37,3.37,0,0,1,.75-.59,9.45,9.45,0,0,1,.94-.58,14.3,14.3,0,0,1,1.31-.67,18.94,18.94,0,0,1,3.63-1.23,20.06,20.06,0,0,1,9.33.06,18.59,18.59,0,0,1,3.61,1.27,12.81,12.81,0,0,1,1.3.69,7.83,7.83,0,0,1,.94.59A3.35,3.35,0,0,1,215.23,323.94Z" style="fill:#455a64"></path><g style="opacity:0.30000000000000004"><path d="M166.88,351.28s7.57,32.33,15.82,41.38,9.65,7.4,9.65,7.4h0Z"></path></g><path d="M211.51,294.64s.83-5.05,3.28-7.9a56.25,56.25,0,0,1,7-6.24H223l3.32-7.45,9.33-.45s-2,18.18-6.48,23.72-9.06,5.23-11,4.67S211.51,294.64,211.51,294.64Z" style="fill:#e28d76"></path><path d="M195.42,224.42l-7.36,36.33a3.24,3.24,0,0,0,3.17,3.87h50.65a3.23,3.23,0,0,0,3.15-2.53l8.14-36.33a3.22,3.22,0,0,0-3.15-3.93H198.59A3.23,3.23,0,0,0,195.42,224.42Z" style="fill:#263238"></path><path d="M195.42,224.42a2.08,2.08,0,0,1,.12-.5,3.21,3.21,0,0,1,.81-1.26,3.31,3.31,0,0,1,2.23-.91l3.31,0,21.08-.08,14.55,0h12.35a3.5,3.5,0,0,1,3.49,2.54,4.2,4.2,0,0,1-.09,2.31c-.16.72-.32,1.45-.49,2.19-.32,1.47-.66,3-1,4.46-.67,3-1.36,6.07-2.06,9.19-1.39,6.25-2.84,12.72-4.32,19.34a6.32,6.32,0,0,1-.38,1.27,3.4,3.4,0,0,1-.82,1.09,3.55,3.55,0,0,1-2.49.9H208.5l-16.7,0a4.29,4.29,0,0,1-2-.31,3.43,3.43,0,0,1-1.51-1.33,3.37,3.37,0,0,1-.5-1.9,14.37,14.37,0,0,1,.32-1.84q.74-3.57,1.4-6.84L193.79,232c.51-2.42.91-4.3,1.19-5.61.13-.62.24-1.1.32-1.45s.12-.49.12-.49a4.68,4.68,0,0,1-.07.5c-.07.35-.16.84-.27,1.46-.25,1.31-.62,3.2-1.09,5.63-1,4.9-2.38,12-4.1,20.67l-1.38,6.85a14.55,14.55,0,0,0-.3,1.77,2.92,2.92,0,0,0,.45,1.67,3,3,0,0,0,1.32,1.16,3.76,3.76,0,0,0,1.82.27l16.7,0,18.46,0h14.76a3,3,0,0,0,2.14-.76,2.89,2.89,0,0,0,.7-.93,5.62,5.62,0,0,0,.34-1.16c1.48-6.62,2.93-13.09,4.34-19.34.7-3.12,1.39-6.19,2.06-9.19.34-1.5.68-3,1-4.46.16-.73.33-1.46.49-2.19a3.78,3.78,0,0,0,.1-2.07,3,3,0,0,0-3-2.2H237.52L223,222l-21.08-.08-3.31,0a3.17,3.17,0,0,0-2.16.83A3.52,3.52,0,0,0,195.42,224.42Z" style="fill:#455a64"></path><path d="M225.59,241s6.11,10.4,6.74,11.78,2.46,3.5,2.58,4.81,1.58,8.8,1.45,11.51a20.34,20.34,0,0,1-1.62,6.06l-8.4-2.09a13.51,13.51,0,0,1-3.13-4.28,9.73,9.73,0,0,0-3.23-4.35c-1.07-.82-5.3-3.47-5.8-4.43a2.07,2.07,0,0,1,0-2.05s-2-.94-2.27-2,0-2.71,2.21-1.7,10.33,6.81,11.15,6.18-.19-2.16-.19-2.16-8.63-7.86-9.07-9.25.82-3.34,2.83-1.64,8.64,8.38,9.33,8.38-.06-1.95-.06-1.95-3.4-7.31-4-9.26S223.88,240,225.59,241Z" style="fill:#e28d76"></path><path d="M253.56,224l-.25,0-.73,0-2.78,0-10.25.08-33.8.08h-4.89a2.56,2.56,0,0,0-2,.67,2.43,2.43,0,0,0-.57.88c-.1.32-.18.75-.27,1.11-.69,3-1.33,6-1.92,8.77-1.18,5.58-2.24,10.62-3.13,14.87s-1.68,7.64-2.25,10l-.66,2.7-.19.7a.75.75,0,0,1-.08.24.79.79,0,0,1,0-.25c0-.19.08-.42.14-.71l.57-2.73c.5-2.41,1.2-5.83,2.08-10s1.88-9.3,3-14.89c.58-2.8,1.21-5.74,1.9-8.78.09-.39.14-.74.28-1.17a2.66,2.66,0,0,1,.7-1.08,3.12,3.12,0,0,1,2.38-.82h4.89l33.8.08,10.25.08,2.78,0,.73,0Z" style="fill:#455a64"></path><path d="M212.73,288s.05-.3.26-.82a10.82,10.82,0,0,1,1.17-2,11.57,11.57,0,0,1,6.27-4.34,11,11,0,0,1,2.29-.35l-.2.12c1.14-2.08,2-4.06,2.7-5.4a19.35,19.35,0,0,1,1.12-2.16,10.49,10.49,0,0,1-.82,2.3c-.61,1.4-1.4,3.34-2.57,5.54l-.06.1h-.15a11.21,11.21,0,0,0-2.18.34,12,12,0,0,0-6.11,4.07A26.81,26.81,0,0,0,212.73,288Z" style="fill:#bf614b"></path><path d="M223.6,263.55a28,28,0,0,1-4.81-2.62,27.67,27.67,0,0,1-4.53-3.07,29.14,29.14,0,0,1,4.8,2.63A29.84,29.84,0,0,1,223.6,263.55Z" style="fill:#bf614b"></path><path d="M226.3,232.74a1.67,1.67,0,1,1-3.17-1,1.79,1.79,0,0,1,2.14-1.3A1.78,1.78,0,0,1,226.3,232.74Z" style="fill:#e0e0e0"></path><path d="M208.14,361.24A.72.72,0,0,1,208,361c-.07-.16-.15-.37-.26-.61q-.35-.89-1-2.4c-.82-2.13-2-5.13-3.43-8.83l-5-13.13c-.95-2.46-1.88-5.09-3.14-7.65a19.82,19.82,0,0,0-5.27-7,20,20,0,0,0-7.86-3.81,30.41,30.41,0,0,0-8.16-.86,45,45,0,0,0-7.42.85c-2.31.42-4.45.88-6.4,1.32-3.9.88-7,1.66-9.22,2.2l-2.5.61a5.42,5.42,0,0,1-.88.19l.21-.09.64-.2,2.48-.71c2.16-.6,5.29-1.44,9.19-2.36,1.94-.46,4.09-.94,6.4-1.38a45.15,45.15,0,0,1,7.49-.91,31.1,31.1,0,0,1,8.3.84,20.67,20.67,0,0,1,8.06,3.9,20.16,20.16,0,0,1,5.4,7.13c1.27,2.61,2.19,5.24,3.13,7.71,1.85,4.95,3.52,9.41,4.92,13.17s2.49,6.75,3.28,8.89q.56,1.53.87,2.43l.21.64A.63.63,0,0,1,208.14,361.24Z" style="fill:#455a64"></path><path d="M167,351.49a7.62,7.62,0,0,0-2.4-.42,6.05,6.05,0,0,0-2.52.64,7.08,7.08,0,0,0-2.41,2.07,11.7,11.7,0,0,0-2,5.49,19.8,19.8,0,0,1-.3,2.48,8.1,8.1,0,0,1-.06-2.52,10.94,10.94,0,0,1,2-5.76,7.18,7.18,0,0,1,2.61-2.19,5.9,5.9,0,0,1,2.73-.58,4.76,4.76,0,0,1,1.83.41C166.87,351.3,167.06,351.46,167,351.49Z" style="fill:#455a64"></path><path d="M124,262.36s41.36,2.76,41.89,2.26-5.36-44.08-5.36-44.08-18,6.18-23.16,9C129,234.1,122.21,243.22,124,262.36Z" style="fill:#FFD095"></path><path d="M157.4,222.69a6.7,6.7,0,0,1,.16.78c.08.56.2,1.31.35,2.25.29,2,.7,4.82,1.2,8.27,1,7,2.3,16.69,3.77,27.34l.07.47,0,.32-.32,0-27.21-1.84-8.23-.62-2.23-.19a4.5,4.5,0,0,1-.78-.1,4,4,0,0,1,.79,0l2.24.09,8.23.45,27.22,1.69-.27.3c0-.15,0-.32-.06-.48-1.41-10.66-2.69-20.31-3.62-27.35-.44-3.47-.79-6.29-1-8.3-.11-.95-.19-1.7-.26-2.26A4.36,4.36,0,0,1,157.4,222.69Z" style="fill:#263238"></path><path d="M139.5,244.05c-.12.08-.54-.35-.94-1s-.63-1.18-.51-1.26.54.36.95,1S139.62,244,139.5,244.05Z" style="fill:#263238"></path><path d="M140.38,243.05c-.15,0-.32-.54-.39-1.23s0-1.27.13-1.29.32.54.39,1.24S140.52,243,140.38,243.05Z" style="fill:#263238"></path><path d="M141.42,243.05c-.14,0-.2-.61-.13-1.34s.24-1.31.39-1.3.2.62.13,1.35S141.56,243.07,141.42,243.05Z" style="fill:#263238"></path><path d="M147.82,253.23c-.09.11-.59-.17-1.12-.62s-.87-.9-.77-1,.59.17,1.11.62S147.91,253.12,147.82,253.23Z" style="fill:#263238"></path><path d="M148.43,253.12c-.14,0-.28-.46-.32-1.06s.06-1.07.2-1.08.29.46.32,1.05S148.58,253.11,148.43,253.12Z" style="fill:#263238"></path><path d="M149.69,253.24c-.12-.07,0-.55.13-1.14s.11-1.09.25-1.12.38.51.26,1.21S149.81,253.32,149.69,253.24Z" style="fill:#263238"></path><path d="M147.93,232.23c-.12.07-.53-.38-.91-1s-.59-1.2-.47-1.27.53.37.91,1S148.06,232.15,147.93,232.23Z" style="fill:#263238"></path><path d="M149,231.61c-.14,0-.38-.31-.55-.8s-.2-.92-.06-1,.38.31.55.8S149.17,231.56,149,231.61Z" style="fill:#263238"></path><path d="M149.88,231.73c-.14,0-.15-.61,0-1.31s.35-1.24.5-1.21.15.61,0,1.31S150,231.76,149.88,231.73Z" style="fill:#263238"></path><path d="M129,254.86c-.12.08-.53-.26-.92-.78s-.61-1-.5-1.09.53.26.92.78S129.07,254.77,129,254.86Z" style="fill:#263238"></path><path d="M129.93,254c-.13.06-.43-.35-.67-.9s-.34-1.06-.21-1.11.44.34.68.9S130.07,253.94,129.93,254Z" style="fill:#263238"></path><path d="M131.47,254.26c-.14,0-.14-.59,0-1.25s.39-1.17.53-1.14.13.59,0,1.25S131.61,254.29,131.47,254.26Z" style="fill:#263238"></path></g></svg>
